<svg width="91" height="91" viewBox="0 0 91 91" fill="none" xmlns="http://www.w3.org/2000/svg">
<path d="M0 24C0 10.7452 10.7452 0 24 0H67C80.2548 0 91 10.7452 91 24V67C91 80.2548 80.2548 91 67 91H24C10.7452 91 0 80.2548 0 67V24Z" fill="#F9E8EE"/>
<path d="M43.5833 70.1663H55.6667C64.125 70.1663 67.75 65.333 67.75 58.083V33.9163C67.75 26.6663 64.125 21.833 55.6667 21.833H36.3333C27.875 21.833 24.25 26.6663 24.25 33.9163" stroke="#DB6D92" stroke-width="3.625" stroke-miterlimit="10" stroke-linecap="round" stroke-linejoin="round"/>
<path d="M52.042 27.875V32.7083C52.042 35.3667 54.217 37.5417 56.8753 37.5417H61.7087" stroke="#DB6D92" stroke-width="3.625" stroke-miterlimit="10" stroke-linecap="round" stroke-linejoin="round"/>
<path d="M30.292 59.5943C36.6735 59.5943 41.8467 54.6127 41.8467 48.4676C41.8467 42.3224 36.6735 37.3408 30.292 37.3408C23.9105 37.3408 18.7373 42.3224 18.7373 48.4676C18.7373 54.6127 23.9105 59.5943 30.292 59.5943Z" stroke="#DB6D92" stroke-width="3.625" stroke-linecap="round" stroke-linejoin="round"/>
<path d="M22.6226 57.0609L22.6055 69.694C22.6055 71.2346 23.6839 71.9878 25.0191 71.3544L29.6067 69.1805C29.9833 68.9922 30.6167 68.9922 30.9933 69.1805L35.5981 71.3544C36.9162 71.9707 38.0117 71.2346 38.0117 69.694V56.7527" stroke="#DB6D92" stroke-width="3.625" stroke-linecap="round" stroke-linejoin="round"/>
</svg>
