<svg width="91" height="91" viewBox="0 0 91 91" fill="none" xmlns="http://www.w3.org/2000/svg">
<path d="M0 24C0 10.7452 10.7452 0 24 0H67C80.2548 0 91 10.7452 91 24V67C91 80.2548 80.2548 91 67 91H24C10.7452 91 0 80.2548 0 67V24Z" fill="#DDEFED" fill-opacity="0.5"/>
<path d="M70.1663 45.7341V47.885C70.1663 56.4883 68.0155 58.615 59.4363 58.615H32.563C23.9838 58.615 21.833 56.4641 21.833 47.885V32.5633C21.833 23.9841 23.9838 21.8333 32.563 21.8333H36.333" stroke="#69B8AF" stroke-width="3.625" stroke-linecap="round" stroke-linejoin="round"/>
<path d="M46 58.6143V70.166" stroke="#69B8AF" stroke-width="3.625" stroke-linecap="round" stroke-linejoin="round"/>
<path d="M21.833 48.4167H70.1663" stroke="#69B8AF" stroke-width="3.625" stroke-linecap="round" stroke-linejoin="round"/>
<path d="M35.125 70.1667H56.875" stroke="#69B8AF" stroke-width="3.625" stroke-linecap="round" stroke-linejoin="round"/>
<path d="M60.1609 39.6436H48.6576C45.3226 39.6436 44.2109 37.4203 44.2109 35.1969V26.6903C44.2109 24.0319 46.3859 21.8569 49.0443 21.8569H60.1609C62.6259 21.8569 64.6076 23.8386 64.6076 26.3036V35.1969C64.6076 37.6619 62.6259 39.6436 60.1609 39.6436Z" stroke="#69B8AF" stroke-width="3.625" stroke-linecap="round" stroke-linejoin="round"/>
<path d="M67.5326 36.1411L64.6084 34.087V27.417L67.5326 25.3628C68.9826 24.372 70.1667 24.9761 70.1667 26.7403V34.7878C70.1667 36.552 68.9826 37.1561 67.5326 36.1411Z" stroke="#69B8AF" stroke-width="3.625" stroke-linecap="round" stroke-linejoin="round"/>
</svg>
