<svg width="91" height="91" viewBox="0 0 91 91" fill="none" xmlns="http://www.w3.org/2000/svg">
<path d="M0 24C0 10.7452 10.7452 0 24 0H67C80.2548 0 91 10.7452 91 24V67C91 80.2548 80.2548 91 67 91H24C10.7452 91 0 80.2548 0 67V24Z" fill="#E9E9FA"/>
<path fill-rule="evenodd" clip-rule="evenodd" d="M73.9878 28.5989C74.2949 28.5755 74.5114 28.7186 74.7002 28.9347L74.703 28.9377C74.8943 29.1538 75 29.4516 75 29.7612V73.8378C75 74.2729 74.7936 74.67 74.4613 74.8686C74.3153 74.9562 74.1567 75 73.9981 75C73.7968 75 73.5954 74.9299 73.4242 74.7898C68.9913 71.1921 54.3941 69.2006 45.9988 69.2006C37.6034 69.2006 23.0061 71.1892 18.5733 74.7898C18.2687 75.038 17.8684 75.0672 17.5387 74.8686C17.2064 74.6671 17 74.27 17 73.8378V29.7582C17 29.4486 17.1057 29.1508 17.297 28.9347C17.4858 28.7157 17.7804 28.5755 18.0094 28.5989C19.0904 28.6126 20.0005 27.7603 20.0005 26.6793V23.9588C20.0005 23.6492 20.1063 23.3513 20.2976 23.1352C20.4864 22.9162 20.7129 22.8024 21.01 22.7994C22.0919 22.8142 23.0011 21.9647 23.0011 20.8827V18.1593C23.0011 17.8498 23.1068 17.5519 23.2981 17.3358C23.4843 17.1168 23.721 17 24.0004 17C26.2435 17 28.4763 17.2278 30.6436 17.5928C35.5815 18.4275 40.3977 20.133 44.9839 22.6645C45.615 23.0129 46.3821 23.0127 47.0131 22.6642C51.5996 20.1305 56.4176 18.4275 61.3536 17.5928C63.5212 17.2248 65.7716 17 67.9969 17C68.2712 17 68.5103 17.1197 68.6991 17.3358C68.8904 17.5519 68.9962 17.8498 68.9962 18.1593V20.8827C68.9962 21.9647 69.9053 22.8143 70.9873 22.7994C71.2742 22.8024 71.5109 22.9192 71.6997 23.1352C71.891 23.3514 71.9967 23.6492 71.9967 23.9588V26.6793C71.9967 27.7603 72.9068 28.6126 73.9878 28.5989ZM68.6819 64.9217C69.3381 65.0845 69.998 64.6035 69.998 63.9273V25.8599C69.998 25.4689 69.6737 25.1587 69.2836 25.1843C69.1235 25.1948 68.9986 25.3277 68.9986 25.4882V61.6578C68.9986 62.2944 68.558 62.8113 68.0093 62.8171C65.8646 62.8434 63.7225 63.0332 61.6432 63.3866C61.1298 63.4735 61.2475 64.2038 61.7682 64.1983C64.3184 64.1713 66.6264 64.4117 68.6819 64.9217ZM35.7289 60.9497C35.1822 59.854 34.7369 58.6327 34.393 57.2759C34.2634 56.7646 33.7622 56.3835 33.2406 56.3052C31.9118 56.1058 30.5776 57.6996 31.67 58.4821C32.8877 59.3545 34.2478 60.1465 35.7289 60.9497ZM22.7087 25.1844C22.3215 25.159 21.9997 25.4668 21.9997 25.8548L21.9996 62.5492C21.9996 63.9072 23.3298 64.8783 24.6656 64.6338C28.1712 63.9922 32.3357 64.0597 37.1227 64.8284C37.4121 64.8749 37.5511 64.4747 37.2918 64.3381C37.2237 64.3023 37.1557 64.2665 37.0878 64.2307C29.2166 60.087 22.9991 56.8135 22.9991 43.0861V25.4941C22.9991 25.3306 22.8718 25.1952 22.7087 25.1844ZM19.714 30.9839C19.3235 30.9578 18.9992 31.2686 18.9992 31.66L18.9969 68.431C18.9969 69.9583 20.6708 70.9759 22.1069 70.456C22.6243 70.2687 23.1627 70.0899 23.7182 69.9194C25.9406 69.2374 25.8195 66.6622 23.5668 67.2359C22.775 67.4376 22.0297 67.6826 21.3327 67.9713C21.0281 68.0997 20.6883 68.0472 20.4215 67.8282C20.1572 67.6092 19.9986 67.2558 19.9986 66.8791V31.2876C19.9986 31.1274 19.8739 30.9946 19.714 30.9839ZM68.4321 67.2369C66.1794 66.6627 66.0583 69.2383 68.2807 69.9205C70.0732 70.4708 71.6865 71.1073 72.9962 71.8391C72.9979 71.84 72.9989 71.8418 72.9989 71.8437V31.6607C72.9989 31.269 72.6743 30.958 72.2835 30.9841C72.124 30.9948 71.9996 31.1272 71.9995 31.2871L71.9971 66.8793C71.9971 67.2559 71.8385 67.6122 71.5742 67.8283C71.3098 68.0444 70.9675 68.0999 70.6629 67.9714C69.9668 67.6832 69.2226 67.4384 68.4321 67.2369ZM66.998 21.4176C66.998 20.2851 66.0579 19.3737 64.9295 19.4704C63.8236 19.5652 62.726 19.7044 61.6455 19.888C61.6445 19.8882 61.6435 19.8888 61.6428 19.8897C61.6422 19.8905 61.6412 19.8911 61.6401 19.8913C56.8613 20.6976 52.2018 22.3653 47.7637 24.8326C47.2879 25.0971 46.9988 25.6021 46.9988 26.1465V26.6729C46.9988 27.2255 46.5509 27.6734 45.9983 27.6734C45.4458 27.6734 44.9978 27.2255 44.9978 26.6729V26.1445C44.9978 25.5996 44.7086 25.0941 44.2325 24.8292C39.7936 22.3596 35.134 20.6945 30.3549 19.8883C29.2739 19.7063 28.1756 19.5666 27.0689 19.4711C25.9407 19.3739 25.0006 20.285 25.0005 21.4174L24.9984 43.0888C24.9984 48.5086 28.7366 54.1153 34.9919 54.1153C35.4676 54.1153 35.8754 54.5007 35.9711 55.041C36.691 59.1145 38.2063 61.8565 40.6883 63.6027C41.0764 63.8143 41.469 64.0321 41.8656 64.2568C43.2409 65.0359 44.9978 64.0656 44.9978 62.4849V55.4935C44.9978 54.9404 45.4466 54.4923 45.9997 54.493C46.5517 54.4938 46.9988 54.9415 46.9988 55.4935V62.7957C46.9988 64.3189 48.64 65.2923 50.0211 64.6497C53.6903 62.9428 57.4837 61.7483 61.3544 61.0944C62.5767 60.8877 63.8189 60.7347 65.0706 60.6353C66.1444 60.5501 66.998 59.6714 66.998 58.5943V21.4176Z" fill="#2621CF"/>
<path fill-rule="evenodd" clip-rule="evenodd" d="M48.3843 28.0356C47.199 26.8553 45.266 26.8553 44.0806 28.0356L41.6291 30.4789H40.7311L37.1624 30.68C36.0804 31.1025 35.308 32.1464 35.308 33.3714V36.767L32.8565 39.2102C31.6689 40.3928 31.6689 42.3152 32.8565 43.4955L35.308 45.9387V49.3343C35.308 50.9304 36.6124 52.2314 38.2176 52.2314H41.63L44.0815 54.6746C44.4452 55.0368 44.8807 55.2737 45.3409 55.4123C45.7546 55.6174 46.6907 55.9051 47.1252 55.4149C47.5854 55.274 48.0232 55.0371 48.3846 54.6749L50.8362 52.2317H54.2486C55.8515 52.2317 57.1581 50.9329 57.1581 49.3346V45.939L59.6096 43.4958C60.7972 42.3133 60.7972 40.3908 59.6096 39.2105L57.1581 36.7673V33.3717C57.1581 31.7756 55.8538 30.4746 54.2486 30.4746H51.3346L49.765 29.4103L48.3843 28.0356ZM45.3405 29.2894L42.6263 31.992C42.4579 32.1575 42.2312 32.2513 41.9954 32.2513H38.2149C37.5953 32.2513 37.0901 32.7543 37.0901 33.3713V37.1356C37.0901 37.3704 36.9958 37.5984 36.8297 37.7638L34.1155 40.4664C33.6238 40.956 33.6238 41.7518 34.1155 42.2413L36.8297 44.9439C36.9958 45.1116 37.0901 45.3374 37.0901 45.5721V49.3365C37.0901 49.9534 37.5953 50.4564 38.2149 50.4564H41.9954C42.2334 50.4564 42.4602 50.5503 42.6263 50.7157L45.3405 53.4183C45.8322 53.9056 46.6314 53.9079 47.1231 53.4183L49.8373 50.7157C50.0057 50.5503 50.2324 50.4564 50.4682 50.4564H54.2487C54.8683 50.4564 55.3735 49.9535 55.3735 49.3365V45.5721C55.3735 45.3374 55.4677 45.1094 55.6339 44.9439L58.3481 42.2413C58.8398 41.7518 58.8398 40.956 58.3481 40.4664L55.6339 37.7638C55.4677 37.5961 55.3735 37.3704 55.3735 37.1356V33.3713C55.3735 32.7543 54.8683 32.2513 54.2487 32.2513H50.4682C50.2302 32.2513 50.0034 32.1575 49.8373 31.992L47.1231 29.2894C46.6314 28.8021 45.8322 28.7999 45.3405 29.2894Z" fill="#2621CF"/>
</svg>
