<svg width="91" height="91" viewBox="0 0 91 91" fill="none" xmlns="http://www.w3.org/2000/svg">
<path d="M0 24C0 10.7452 10.7452 0 24 0H67C80.2548 0 91 10.7452 91 24V67C91 80.2548 80.2548 91 67 91H24C10.7452 91 0 80.2548 0 67V24Z" fill="#E4DBEE" fill-opacity="0.5"/>
<path d="M46.3623 56.875V61.95" stroke="#7241A7" stroke-width="3.625" stroke-linecap="round" stroke-linejoin="round"/>
<path d="M34.2793 70.1667H58.446V67.75C58.446 65.0917 56.271 62.9167 53.6126 62.9167H39.1126C36.4543 62.9167 34.2793 65.0917 34.2793 67.75V70.1667V70.1667Z" stroke="#7241A7" stroke-width="3.625" stroke-miterlimit="10"/>
<path d="M31.8623 70.1667H60.8623" stroke="#7241A7" stroke-width="3.625" stroke-linecap="round" stroke-linejoin="round"/>
<path d="M45.9997 55.6666C36.6472 55.6666 29.083 48.1025 29.083 38.75V31.5C29.083 26.1591 33.4088 21.8333 38.7497 21.8333H53.2497C58.5905 21.8333 62.9163 26.1591 62.9163 31.5V38.75C62.9163 48.1025 55.3522 55.6666 45.9997 55.6666Z" stroke="#7241A7" stroke-width="3.625" stroke-linecap="round" stroke-linejoin="round"/>
<path d="M30.2189 45.1532C28.4064 44.5732 26.8114 43.5099 25.5547 42.2532C23.3797 39.8365 21.9297 36.9365 21.9297 33.5532C21.9297 30.1699 24.588 27.5115 27.9714 27.5115H29.5422C29.0589 28.6232 28.8172 29.8557 28.8172 31.1365V38.3865C28.8172 40.8032 29.3247 43.0749 30.2189 45.1532Z" stroke="#7241A7" stroke-width="3.625" stroke-linecap="round" stroke-linejoin="round"/>
<path d="M61.7803 45.1532C63.5928 44.5732 65.1878 43.5099 66.4444 42.2532C68.6194 39.8365 70.0694 36.9365 70.0694 33.5532C70.0694 30.1699 67.4111 27.5115 64.0278 27.5115H62.4569C62.9403 28.6232 63.1819 29.8557 63.1819 31.1365V38.3865C63.1819 40.8032 62.6744 43.0749 61.7803 45.1532Z" stroke="#7241A7" stroke-width="3.625" stroke-linecap="round" stroke-linejoin="round"/>
</svg>
