<svg width="91" height="91" viewBox="0 0 91 91" fill="none" xmlns="http://www.w3.org/2000/svg">
<path d="M0 24C0 10.7452 10.7452 0 24 0H67C80.2548 0 91 10.7452 91 24V67C91 80.2548 80.2548 91 67 91H24C10.7452 91 0 80.2548 0 67V24Z" fill="#F4CAF0" fill-opacity="0.5"/>
<path d="M45.9997 71.9788C31.6688 71.9788 20.0205 60.3305 20.0205 45.9997C20.0205 31.6688 31.6688 20.0205 45.9997 20.0205C47.7638 20.0205 49.528 20.1897 51.2438 20.5522C52.2347 20.7455 52.863 21.7122 52.6455 22.703C52.4522 23.6938 51.4855 24.3222 50.5188 24.1047C49.0447 23.7905 47.5222 23.6455 45.9997 23.6455C33.6747 23.6455 23.6455 33.6747 23.6455 45.9997C23.6455 58.3247 33.6747 68.3538 45.9997 68.3538C58.3247 68.3538 68.3538 58.3247 68.3538 45.9997C68.3538 44.5013 68.2088 43.003 67.9188 41.553C67.7255 40.5622 68.3538 39.6197 69.3447 39.4263C70.3355 39.2088 71.278 39.8613 71.4713 40.8522C71.8097 42.5438 71.9788 44.2838 71.9788 46.0238C71.9788 60.3305 60.3305 71.9788 45.9997 71.9788Z" fill="#D93EC9"/>
<path d="M57.071 41.5475C52.9102 43.3531 48.6887 39.1316 50.4943 34.9709L53.8448 27.2493C55.2491 24.0134 59.4724 23.2098 61.9668 25.7039L66.3379 30.075C68.8321 32.5694 68.0285 36.7928 64.7925 38.197L57.071 41.5475Z" stroke="#D93EC9" stroke-width="4"/>
</svg>
