<svg width="36" height="18" viewBox="0 0 36 18" fill="none" xmlns="http://www.w3.org/2000/svg">
<path d="M35.7577 15.8575C35.249 14.8812 34.5296 15.4465 34.4526 15.5081C34.3755 15.5646 34.062 16.1504 34.6273 16.2686C35.1925 16.3868 35.0538 15.7394 35.0538 15.7394C35.6961 16.4793 35.0538 16.9469 35.0538 16.9469C33.9027 17.7485 32.8082 15.9706 32.7106 14.9583C32.613 13.946 32.1865 12.8104 30.758 12.014C29.3346 11.2124 27.7057 12.2657 27.7057 12.2657C27.752 11.5258 27.5413 10.9195 27.5413 10.9195C26.4879 8.28344 22.4902 6.88063 22.4902 6.88063C18.7802 5.47783 17.9735 3.40189 17.9272 3.27857C17.881 3.40703 17.0743 5.4881 13.3643 6.88577C13.3643 6.88577 9.36655 8.28857 8.31317 10.9246C8.31317 10.9246 8.10249 11.5309 8.14874 12.2709C8.14874 12.2709 6.51984 11.2175 5.09648 12.0191C3.67313 12.8207 3.2415 13.9512 3.14387 14.9634C3.04624 15.9757 1.95175 17.7536 0.800728 16.952C0.800728 16.952 0.158421 16.4844 0.800728 15.7445C0.800728 15.7445 0.661987 16.3868 1.22722 16.2738C1.79245 16.1556 1.47901 15.5698 1.40193 15.5133C1.32485 15.4567 0.600327 14.8915 0.09676 15.8627C0.09676 15.8627 -0.566105 17.5018 1.58178 18.0003C1.58178 18.0003 1.62802 18.0003 1.71538 18.0003C2.07507 17.9797 3.07706 17.7742 3.55494 16.1915C3.76562 16.6694 4.40279 17.8256 5.7799 18.0003C5.78504 18.0003 5.79018 18.0003 5.79532 18.0003C5.79532 18.0003 5.82615 18.0003 5.87753 18.0003C6.22181 17.9849 7.5835 17.8718 8.1436 16.9931C8.1436 16.9931 8.65744 16.5153 8.73966 15.7548C9.03769 16.0939 9.57209 16.6745 10.1373 17.1216C10.9852 17.7947 11.7611 17.692 11.7611 17.692C11.8587 17.6714 11.9512 17.6457 12.0386 17.62C12.4959 17.7382 12.7579 18.0003 12.7579 18.0003L13.8884 18.0003C13.7034 17.6406 13.1433 17.3426 12.9018 17.2244C13.9398 16.4896 13.6109 15.3591 13.6109 15.3591C13.6109 15.3437 13.6058 15.3283 13.6007 15.3129C13.539 14.835 14.0785 14.5472 14.0785 14.5472C14.3252 15.0713 14.9007 14.4599 14.988 14.3777C15.0754 14.2954 15.322 14.3622 15.322 14.3622C15.0908 14.0488 14.4382 13.9769 14.4382 13.9769C13.6212 13.9512 13.2769 14.5369 13.1793 14.7476C12.8504 14.4445 12.3726 14.2081 11.8998 14.4496C11.0674 14.8761 11.4014 15.5749 11.4014 15.5749C11.5504 16.0734 12.2081 16.2635 12.573 15.9398C12.9378 15.616 12.7322 15.3591 12.7322 15.3591C12.4291 14.984 12.1773 15.2358 12.1773 15.2358C11.9769 15.5441 12.2492 15.6314 12.2492 15.6314C11.8382 15.6469 11.8998 15.2358 11.8998 15.2358C11.9461 15.1176 12.4394 14.6089 12.8813 15.2358C13.318 15.8627 12.6911 16.5512 12.6911 16.5512C11.5196 17.5481 10.1733 16.7414 9.01714 15.1587C8.73966 14.7785 8.51357 14.501 8.32858 14.2903C8.30803 14.2595 8.28748 14.2286 8.26692 14.2029C8.26692 14.2029 8.17443 14.0899 8.00486 13.9563C7.69141 13.6737 7.59892 13.7199 7.59892 13.7199C7.22895 13.5658 6.72024 13.5093 6.10876 13.8278C6.10876 13.8278 5.18898 14.3725 5.53839 15.2923C5.53839 15.2923 6.00599 16.171 6.66886 15.7034C6.66886 15.7034 7.17756 15.2974 6.80759 14.8555C6.80759 14.8555 6.05738 14.3931 6.10876 15.3283C6.10876 15.3283 5.61033 14.2286 6.98231 14.2749C6.98231 14.2749 8.45705 14.4907 7.93806 16.0477C7.93806 16.0477 7.23409 17.6303 5.59492 17.0445C5.59492 17.0445 3.89409 16.6386 3.89922 14.686C4.3771 12.9954 5.09135 12.7231 5.94947 12.4405C5.94947 12.4405 7.10563 12.2863 8.13846 13.1804C8.13846 13.1804 9.18671 14.5678 9.9472 14.6243C9.9472 14.6243 10.4559 14.7579 11.0571 14.6294C11.9307 14.5883 12.9018 13.5195 12.9018 13.5195L14.911 11.3562C14.911 11.3562 14.9367 11.3305 14.9521 11.3151C14.9726 11.6337 15.1011 12.1784 15.6715 12.7693C16.5707 13.7045 17.3209 14.2543 17.1924 14.9634C17.1924 14.9634 16.9407 15.7805 16.247 15.5184C16.247 15.5184 15.692 15.2872 15.7383 14.8504C15.7383 14.8504 16.0311 15.2923 16.36 14.8504C16.36 14.8504 16.545 14.5729 16.2829 14.2903C16.2829 14.2903 15.8821 14.0282 15.579 14.3314C15.2758 14.6346 15.1987 15.0919 15.4248 15.4722C15.6098 15.7856 16.396 16.4279 17.1924 15.9552C17.1308 16.0322 17.0845 16.1196 17.0588 16.2224C17.0588 16.2224 17.0999 16.5255 16.915 16.5975C16.7351 16.6694 16.5193 16.469 16.5193 16.469C16.5193 16.469 16.5758 17.0548 17.2233 17.0908C17.2233 17.0908 17.2284 17.3682 17.5419 17.5686C17.8245 17.7536 17.9118 17.9129 17.9221 17.9694L17.9221 17.9849C17.9221 17.9849 17.9221 17.9797 17.9221 17.9746C17.9221 17.9746 17.9221 17.9797 17.9221 17.9849L17.9221 17.9694C17.9375 17.9129 18.0197 17.7536 18.3024 17.5686C18.6158 17.3631 18.6209 17.0908 18.6209 17.0908C19.2632 17.0497 19.3249 16.469 19.3249 16.469C19.3249 16.469 19.1091 16.6694 18.9292 16.5975C18.7494 16.5255 18.7854 16.2224 18.7854 16.2224C18.7597 16.1196 18.7134 16.0322 18.6518 15.9552C19.4534 16.4279 20.2344 15.7856 20.4194 15.4722C20.6455 15.0919 20.5633 14.6346 20.2652 14.3314C19.9672 14.0282 19.5613 14.2903 19.5613 14.2903C19.2992 14.5729 19.4842 14.8504 19.4842 14.8504C19.8182 15.2923 20.106 14.8504 20.106 14.8504C20.1573 15.2923 19.5972 15.5184 19.5972 15.5184C18.9035 15.7805 18.6518 14.9634 18.6518 14.9634C18.5233 14.2492 19.2735 13.7045 20.1728 12.7693C20.738 12.1784 20.8716 11.6337 20.8921 11.3151C20.9076 11.3305 20.923 11.346 20.9332 11.3562L22.9424 13.5195C22.9424 13.5195 23.9136 14.5832 24.7871 14.6294C25.3883 14.7579 25.897 14.6243 25.897 14.6243C26.6626 14.5678 27.7057 13.1804 27.7057 13.1804C28.7334 12.2812 29.8947 12.4405 29.8947 12.4405C30.7529 12.7282 31.462 12.9954 31.945 14.686C31.945 16.6386 30.2493 17.0445 30.2493 17.0445C28.6101 17.6303 27.9061 16.0477 27.9061 16.0477C27.3872 14.4856 28.8619 14.2749 28.8619 14.2749C30.2339 14.2286 29.7354 15.3283 29.7354 15.3283C29.792 14.3931 29.0366 14.8555 29.0366 14.8555C28.6666 15.2974 29.1754 15.7034 29.1754 15.7034C29.8382 16.171 30.3058 15.2923 30.3058 15.2923C30.6552 14.3777 29.7354 13.8278 29.7354 13.8278C29.124 13.5093 28.6153 13.5709 28.2453 13.7199C28.2453 13.7199 28.1528 13.6686 27.8393 13.9563C27.6698 14.0848 27.5773 14.203 27.5773 14.203C27.5567 14.2338 27.5362 14.2646 27.5156 14.2903C27.3306 14.4958 27.1045 14.7785 26.8271 15.1587C25.6709 16.7414 24.3246 17.543 23.1531 16.5512C23.1531 16.5512 22.5262 15.8627 22.9629 15.2358C23.3997 14.6089 23.8981 15.1176 23.9444 15.2358C23.9444 15.2358 24.0009 15.6469 23.595 15.6314C23.595 15.6314 23.8725 15.5441 23.6669 15.2358C23.6669 15.2358 23.4151 14.9789 23.112 15.3591C23.112 15.3591 22.9064 15.616 23.2712 15.9398C23.6361 16.2635 24.2938 16.0734 24.4428 15.5749C24.4428 15.5749 24.782 14.8709 23.9444 14.4496C23.4665 14.2081 22.9938 14.4496 22.6649 14.7476C22.5673 14.5369 22.223 13.9563 21.406 13.9769C21.406 13.9769 20.7534 14.0488 20.5222 14.3622C20.5222 14.3622 20.7637 14.2954 20.851 14.3777C20.9384 14.4599 21.5139 15.0765 21.7605 14.5472C21.7605 14.5472 22.3001 14.835 22.2384 15.3129C22.2384 15.3129 22.2281 15.3488 22.2281 15.3591C22.2281 15.3591 21.8993 16.4947 22.9372 17.2244C22.6957 17.3426 22.1408 17.6406 21.9507 18.0003L23.0811 18.0003C23.0811 18.0003 23.3432 17.7382 23.8005 17.62C23.8879 17.6457 23.9804 17.6714 24.078 17.692C24.078 17.692 24.8539 17.7947 25.7017 17.1216C26.2618 16.6746 26.8014 16.0939 27.0994 15.7548C27.1816 16.5153 27.6955 16.9931 27.6955 16.9931C28.2504 17.8718 29.6173 17.9849 29.9615 18.0003C30.0129 18.0003 30.0438 18.0003 30.0438 18.0003C30.0489 18.0003 30.054 18.0003 30.0592 18.0003C31.4363 17.8256 32.0734 16.6694 32.2841 16.1915C32.762 17.7742 33.764 17.9797 34.1237 18.0003C34.2059 18.0003 34.2573 18.0003 34.2573 18.0003C36.4052 17.5018 35.7423 15.8627 35.7423 15.8627L35.7577 15.8575ZM17.9272 17.2244C17.9272 17.2244 17.5984 16.9931 17.5984 16.7002C17.5984 16.7002 17.6035 16.1813 17.9272 16.1042C18.251 16.1813 18.2561 16.7002 18.2561 16.7002C18.2561 16.9983 17.9478 17.2141 17.9272 17.2244ZM17.9272 15.5235C17.9272 15.5235 17.7371 15.5801 17.5521 15.6828C17.6087 15.6263 17.66 15.5646 17.7114 15.4927C17.7114 15.4927 17.8861 15.2409 17.9272 14.8915C17.9683 15.2461 18.1431 15.4927 18.1431 15.4927C18.1944 15.5646 18.251 15.6263 18.3024 15.6828C18.1174 15.5801 17.9478 15.5287 17.9272 15.5235ZM19.6897 12.4096C19.6897 12.4096 18.7905 13.2215 18.1996 13.9717C18.03 14.1875 17.9529 14.4033 17.9272 14.6037C17.9015 14.4033 17.8245 14.1875 17.6549 13.9717C17.0588 13.2215 16.1647 12.4096 16.1647 12.4096C16.1647 12.4096 15.358 11.68 15.6817 10.7345C15.99 10.5135 16.3343 10.308 16.6426 10.2001C16.7505 10.159 16.8584 10.1384 16.9664 10.123C16.8739 10.2206 16.7865 10.3851 16.7762 10.6523C16.7762 10.6523 16.8276 11.0274 17.3312 11.0685C17.3312 11.0685 17.0177 11.1661 17.0537 11.4179C17.0897 11.6697 17.1205 11.7108 17.3312 11.9061C17.5316 12.091 17.8964 12.3942 17.9272 12.8413L17.9272 12.9029C17.9272 12.9029 17.9272 12.8772 17.9272 12.8618C17.9272 12.8772 17.9272 12.8875 17.9272 12.9029L17.9272 12.8413C17.9581 12.3942 18.3229 12.091 18.5233 11.9061C18.734 11.7108 18.7648 11.6697 18.8008 11.4179C18.8368 11.1661 18.5233 11.0685 18.5233 11.0685C19.0269 11.0274 19.0783 10.6523 19.0783 10.6523C19.068 10.3902 18.9806 10.2258 18.8881 10.123C18.996 10.1384 19.104 10.1641 19.2119 10.2001C19.5202 10.3131 19.8644 10.5187 20.1728 10.7345C20.4965 11.68 19.6897 12.4096 19.6897 12.4096ZM21.8428 11.3151C21.1285 10.4827 20.1882 9.60402 18.7545 9.41389C18.7545 9.41389 18.179 9.37793 17.9272 9.46528C17.6755 9.37279 17.0999 9.41389 17.0999 9.41389C15.6663 9.60402 14.7311 10.4827 14.0117 11.3151C13.6623 11.7211 13.2564 12.1733 12.9275 12.5278C13.02 12.0242 13.0406 11.3562 13.0097 10.8989C12.9635 10.1692 13.3694 9.30085 13.3694 9.30085C13.9655 8.453 14.541 8.8538 14.541 8.8538C14.9778 9.37279 14.4536 9.59374 14.4536 9.59374C14.7054 9.36765 14.5513 9.19294 14.5513 9.19294C14.4947 9.04393 14.2481 9.04392 14.2481 9.04392C13.652 9.14155 13.8781 9.68623 13.8781 9.68623C14.3971 10.4776 15.0394 9.75303 15.0394 9.75303C15.2501 9.40876 15.2501 9.09531 15.1833 8.85894C16.1904 9.00281 16.7762 8.77673 16.7762 8.77673C17.7988 8.46842 17.9118 7.68223 17.9272 7.45614C17.9375 7.68223 18.0557 8.47356 19.0783 8.77673C19.0783 8.77673 19.664 8.99768 20.6712 8.85894C20.6044 9.09531 20.6044 9.40876 20.8151 9.75303C20.8151 9.75303 21.4574 10.4776 21.9764 9.68623C21.9764 9.68623 22.2024 9.14155 21.6064 9.04392C21.6064 9.04392 21.3649 9.04393 21.3032 9.19294C21.3032 9.19294 21.1491 9.36765 21.4008 9.59374C21.4008 9.59374 20.8716 9.36765 21.3135 8.8538C21.3135 8.8538 21.889 8.453 22.4851 9.30085C22.4851 9.30085 22.8961 10.1692 22.8448 10.8989C22.8139 11.3562 22.8396 12.0242 22.927 12.5278C22.6033 12.1733 22.1973 11.7211 21.8428 11.3151ZM26.9453 12.5689C26.6215 13.7765 25.748 14.0899 24.7306 13.9357C23.7183 13.7816 23.2867 11.5926 24.3401 11.1661C25.3934 10.7396 25.45 11.6748 25.45 11.6748C25.2136 10.9554 24.6484 11.4025 24.6484 11.4025C24.1808 12.163 24.9618 12.4559 24.9618 12.4559C26.2516 12.7693 25.9741 11.3049 25.9741 11.3049C25.5836 10.2104 24.4737 10.4056 24.4737 10.4056C24.0369 10.4776 23.7234 10.6574 23.5076 10.8886C23.4973 10.3697 23.374 8.80242 22.3874 8.2783C22.3874 8.2783 22.3617 8.26288 22.3206 8.24747C22.3206 8.24747 21.8222 7.92888 20.2807 8.29885C20.2807 8.29885 18.7802 8.55063 18.4565 7.39448C18.4565 7.39448 18.3897 7.07076 18.7905 7.00396C18.7905 7.00396 18.662 7.39448 19.0269 7.52294C19.0269 7.52294 19.4534 7.57432 19.5356 7.15297C19.5356 7.15297 19.6024 6.66482 19.2427 6.53636C19.2427 6.53636 18.7494 6.36678 18.3332 6.63912C18.4616 6.52608 18.6672 6.25888 18.3743 5.88377L17.9272 5.42644L17.4802 5.88377C17.1873 6.25888 17.3928 6.52608 17.5213 6.63912C17.1051 6.36678 16.6118 6.53636 16.6118 6.53636C16.2521 6.66482 16.3189 7.15297 16.3189 7.15297C16.396 7.57432 16.8276 7.52294 16.8276 7.52294C17.1873 7.39448 17.064 7.00396 17.064 7.00396C17.4648 7.07076 17.398 7.39448 17.398 7.39448C17.0743 8.55577 15.5738 8.29885 15.5738 8.29885C14.0323 7.92888 13.5339 8.24747 13.5339 8.24747C13.4927 8.26802 13.4671 8.2783 13.4671 8.2783C12.4805 8.80242 12.3571 10.3697 12.3469 10.8886C12.131 10.6574 11.8176 10.4776 11.3808 10.4056C11.3808 10.4056 10.2709 10.2104 9.8804 11.3049C9.8804 11.3049 9.60806 12.7693 10.8927 12.4559C10.8927 12.4559 11.6737 12.163 11.2061 11.4025C11.2061 11.4025 10.646 10.9606 10.4045 11.6748C10.4045 11.6748 10.461 10.7396 11.5144 11.1661C12.5678 11.5926 12.1362 13.7816 11.1239 13.9357C10.1116 14.0899 9.23295 13.7816 8.90923 12.5689C8.90923 12.5689 8.39024 11.2226 10.127 9.64513C10.127 9.64513 12.3726 7.79014 14.1248 7.26602C15.8564 6.74703 17.8759 4.75845 17.9272 4.50666C17.9786 4.76359 19.998 6.74703 21.7297 7.26602C23.4871 7.79528 25.7274 9.64513 25.7274 9.64513C27.4642 11.2278 26.9453 12.5689 26.9453 12.5689Z" fill="url(#paint0_linear_4276_6396)"/>
<path d="M17.927 3.2732C17.9732 3.25265 18.8416 2.91865 18.8416 2.19413C18.8416 2.19413 19.0471 1.59292 19.7357 2.10677C19.7357 2.10677 19.895 1.4028 19.0214 1.09963C19.0214 1.09963 19.042 0.601195 18.5282 0.441902C18.0554 0.292887 17.9475 0.0411092 17.9321 1.54393e-06C17.9167 0.0462476 17.8036 0.303174 17.336 0.452189C16.8222 0.611482 16.8427 1.10991 16.8427 1.10991C15.9641 1.41822 16.1285 2.11705 16.1285 2.11705C16.817 1.6032 17.0226 2.2044 17.0226 2.2044C17.0226 2.92893 17.891 3.26807 17.9372 3.28348L17.927 3.2732ZM17.4028 1.6289C17.4028 1.09449 17.9013 0.775911 17.927 0.755357C17.9526 0.770772 18.4511 1.09449 18.4511 1.6289C18.4511 1.6289 18.3843 2.35342 17.927 2.46647C17.4696 2.34828 17.4028 1.6289 17.4028 1.6289Z" fill="url(#paint1_linear_4276_6396)"/>
<defs>
<linearGradient id="paint0_linear_4276_6396" x1="47.0594" y1="-7.1902" x2="0.371955" y2="14.0729" gradientUnits="userSpaceOnUse">
<stop stop-color="#8C5E2C"/>
<stop offset="1" stop-color="#E0AD70"/>
</linearGradient>
<linearGradient id="paint1_linear_4276_6396" x1="20.8838" y1="-2.33492" x2="15.4073" y2="-1.20198" gradientUnits="userSpaceOnUse">
<stop stop-color="#8C5E2C"/>
<stop offset="1" stop-color="#E0AD70"/>
</linearGradient>
</defs>
</svg>
