<svg xmlns="http://www.w3.org/2000/svg" version="1.1" xmlns:xlink="http://www.w3.org/1999/xlink" width="1000" height="1000"><metadata><rdf:RDF xmlns:rdf="http://www.w3.org/1999/02/22-rdf-syntax-ns#" xmlns:dc="http://purl.org/dc/elements/1.1/"><rdf:Description><dc:creator>RealFaviconGenerator</dc:creator><dc:source>https://realfavicongenerator.net</dc:source></rdf:Description></rdf:RDF></metadata><g clip-path="url(#SvgjsClipPath2185)"><rect width="1000" height="1000" fill="#f6f7fb"></rect><g transform="matrix(18.181818181818183,0,0,18.181818181818183,145.45454545454544,99.99999999999994)"><svg xmlns="http://www.w3.org/2000/svg" width="39" height="44" viewBox="0 0 39 44" fill="none"><path d="M11.9183 18.298C10.176 17.6458 8.58898 16.6371 7.25879 15.3364V17.3924L16.7547 23.738C17.1512 22.8511 17.5927 21.985 18.0775 21.1431C16.5681 19.5022 13.7252 18.8791 11.9183 18.298Z" fill="#CCCCCC"></path><path d="M5.76953 16.3975V17.5834L16.3629 24.6632C16.4524 24.4401 16.5462 24.218 16.6432 23.997C16.6799 23.9118 16.7176 23.8266 16.751 23.7425L5.76953 16.3975Z" fill="#999999"></path><path d="M19.1007 25.3045L30.9425 17.3643V15.3364C29.6123 16.6371 28.0253 17.6458 26.2829 18.298C24.5353 18.8553 21.6148 19.5162 19.9782 21.0665C19.2663 22.2096 18.64 23.4038 18.1045 24.6393L19.1007 25.3045Z" fill="#CCCCCC"></path><path d="M19.1 25.306L18.0995 24.6397C17.9658 24.9481 17.8365 25.2575 17.7168 25.568L19.0957 26.4898L32.4382 17.5502V16.3643L19.1 25.306Z" fill="#999999"></path><mask id="mask0_4624_27049" style="mask-type:luminance" maskUnits="userSpaceOnUse" x="12" y="0" width="14" height="26">
<path d="M17.7705 10.2284C17.2467 10.2953 16.7503 10.5014 16.3332 10.8253C15.916 11.1492 15.5934 11.5789 15.3987 12.0698C15.1848 12.6012 15.1396 13.1856 15.2692 13.7435C15.3988 14.3015 15.697 14.8061 16.1232 15.1888C16.6435 15.5024 17.2296 15.6907 17.8352 15.7386C17.3473 16.1305 16.7473 16.357 16.1221 16.3855C13.291 16.3855 12.6388 10.361 17.7694 10.2252M20.0475 2.33353C21.6888 3.25531 22.9527 4.72611 23.6171 6.48744C24.2084 8.45138 24.136 10.5555 23.4111 12.4741C23.5948 10.6425 23.3902 8.7928 22.8106 7.04565C22.231 5.2985 21.2895 3.69323 20.0475 2.3346M16.4132 0.394026C16.3834 0.514153 16.3971 0.64097 16.452 0.751915C16.5069 0.862861 16.5993 0.95074 16.7129 0.999918C17.5512 1.4014 18.3113 1.949 18.9575 2.61707C20.2694 3.93024 21.2612 5.52804 21.8557 7.28648C22.4503 9.04492 22.6317 10.9167 22.3858 12.7566C22.2303 12.1452 21.9535 11.5713 21.5718 11.069C21.1901 10.5667 20.7113 10.1462 20.1639 9.83254C19.6166 9.51888 19.0117 9.31843 18.3854 9.24309C17.759 9.16776 17.1239 9.21907 16.5178 9.39399C15.9083 9.49946 15.3289 9.73531 14.819 10.0854C14.3091 10.4355 13.8809 10.8916 13.5635 11.4225C13.2462 11.9533 13.0473 12.5465 12.9803 13.1614C12.9134 13.7762 12.98 14.3983 13.1756 14.985C13.3449 15.6466 13.7222 16.2364 14.2518 16.6675C14.7815 17.0985 15.4356 17.3481 16.1178 17.3795C16.7542 17.3262 17.3736 17.1462 17.9394 16.8499C18.5053 16.5537 19.0061 16.1473 19.4125 15.6545C19.5021 15.5589 19.5581 15.4367 19.5719 15.3064C19.5857 15.1761 19.5566 15.0449 19.489 14.9327C19.4214 14.8204 19.319 14.7333 19.1974 14.6846C19.0758 14.6358 18.9416 14.6282 18.8152 14.6627C18.4718 14.8026 18.0981 14.8516 17.7302 14.805C17.3623 14.7583 17.0127 14.6176 16.7151 14.3964C16.4553 14.1453 16.2784 13.821 16.2079 13.4667C16.1374 13.1125 16.1766 12.7451 16.3205 12.4137C16.4615 12.1321 16.6588 11.8823 16.9001 11.6799C17.1414 11.4775 17.4217 11.3268 17.7236 11.2369C18.0255 11.1471 18.3426 11.1201 18.6553 11.1577C18.9681 11.1953 19.2698 11.2966 19.5418 11.4553C20.2115 11.9043 20.7333 12.5413 21.0416 13.2863C21.3499 14.0312 21.4309 14.8507 21.2744 15.6416C20.9052 17.3499 20.2096 18.9708 19.2259 20.4154C18.3077 21.8712 17.525 23.4082 16.8876 25.007L17.7252 25.5676C18.352 23.9574 19.1315 22.4108 20.0529 20.9491C20.3979 20.3583 23.4726 15.1877 24.0979 13.5102C26.7295 6.6567 23.3971 1.76645 17.0633 0.018848C16.9962 0.000342821 16.926 -0.00460121 16.857 0.00430475C16.788 0.0132107 16.7214 0.0357881 16.6611 0.0707177C16.6009 0.105647 16.5483 0.152229 16.5062 0.207741C16.4642 0.263252 16.4337 0.326581 16.4164 0.394026" fill="white"></path>
</mask><g mask="url(#mask0_4624_27049)">
<path d="M12.3684 -0.214179L11.9873 25.5625L26.7244 25.7804L27.1055 0.00369448L12.3684 -0.214179Z" fill="url(#paint0_linear_4624_27049)"></path>
</g><mask id="mask1_4624_27049" style="mask-type:luminance" maskUnits="userSpaceOnUse" x="15" y="7" width="24" height="35">
<path d="M25.608 8.60048C29.0021 9.91529 31.9187 12.2268 33.9741 15.2308C36.0295 18.2349 37.1273 21.7908 37.1232 25.4307C37.1232 25.6463 37.1196 25.8619 37.1124 26.0775C36.9928 29.7198 35.7698 33.2399 33.6053 36.1718L33.5396 36.2613C32.4988 37.6665 31.1649 38.8285 29.6304 39.667C28.1675 40.4735 26.527 40.9033 24.8566 40.9176C23.8525 40.9183 22.8553 40.7503 21.9069 40.4206C20.8763 40.0574 19.9142 39.5235 19.0607 38.8411C18.1336 38.1061 17.4173 37.1391 16.9843 36.0381C16.5269 34.8456 16.3029 33.5763 16.3245 32.2992C16.3245 31.8874 16.3461 31.467 16.3838 31.04L15.4609 30.4234C15.3833 31.046 15.343 31.6728 15.3402 32.3003C15.3185 33.7038 15.567 35.0983 16.0722 36.4079C16.5691 37.6685 17.3898 38.7756 18.4516 39.6174C19.3895 40.366 20.4463 40.952 21.5781 41.351C22.6305 41.717 23.7369 41.9036 24.8512 41.9029C26.685 41.8886 28.4864 41.4181 30.0929 40.5338C31.7535 39.6271 33.197 38.3701 34.3233 36.8499L34.3923 36.7561C36.6747 33.6645 37.9646 29.9528 38.0913 26.112C38.0992 25.8856 38.1032 25.66 38.1032 25.435C38.1098 21.5127 36.9018 17.6845 34.6451 14.4764C32.3885 11.2683 29.1939 8.83752 25.5002 7.51807C25.5543 7.87523 25.5882 8.23517 25.6015 8.59617" fill="white"></path>
</mask><g mask="url(#mask1_4624_27049)">
<path d="M18.4053 -0.245399L3.60156 37.2681L35.0311 49.6709L49.8348 12.1574L18.4053 -0.245399Z" fill="url(#paint1_linear_4624_27049)"></path>
</g><mask id="mask2_4624_27049" style="mask-type:luminance" maskUnits="userSpaceOnUse" x="0" y="6" width="22" height="38">
<path d="M5.86892 11.6915C3.6214 13.8102 1.93408 16.453 0.957891 19.3834C-0.0183015 22.3138 -0.252936 25.4405 0.274999 28.4838C0.802934 31.5271 2.07697 34.3921 3.98313 36.8225C5.8893 39.2529 8.36814 41.1729 11.198 42.4109C13.4347 43.4007 15.8444 43.9407 18.2897 44C15.8639 43.8602 13.4894 43.2444 11.3015 42.1877C8.05401 40.6129 5.3436 38.1147 3.50995 35.0061C1.67631 31.8975 0.801019 28.3168 0.993753 24.7128C1.18457 20.0542 3.16858 15.6497 6.53108 12.4198C9.89359 9.18988 14.3743 7.3846 19.0368 7.38128C19.1755 7.38128 19.315 7.38128 19.4551 7.38128C20.2942 7.40034 21.131 7.47743 21.9595 7.61199C21.8517 7.25622 21.7277 6.90584 21.5876 6.563C20.8879 6.46918 20.1835 6.41376 19.4777 6.39697C19.3304 6.39697 19.1834 6.39697 19.0368 6.39697C14.1287 6.3949 9.41033 8.29224 5.87 11.6915" fill="white"></path>
</mask><g mask="url(#mask2_4624_27049)">
<path d="M2.73473 -1.18766L-13.0947 38.9341L18.967 51.5836L34.7964 11.4618L2.73473 -1.18766Z" fill="url(#paint2_linear_4624_27049)"></path>
</g><path d="M17.7703 10.228C17.4236 10.2333 17.0784 10.2756 16.7407 10.3542C16.0824 10.4892 15.4705 10.7931 14.9651 11.2361C14.5627 11.6026 14.265 12.0695 14.1026 12.5891C13.9983 12.9204 13.9456 13.2659 13.9463 13.6133C13.9474 14.0217 14.0204 14.4268 14.1619 14.8099C14.2876 15.1634 14.4822 15.4884 14.7344 15.7662C14.8874 15.9326 15.0665 16.0728 15.2648 16.1813C15.5295 16.3249 15.8262 16.3991 16.1273 16.3969C16.5328 16.3874 16.9302 16.2809 17.2862 16.0864C17.481 15.9852 17.6677 15.8691 17.8447 15.7393C17.4612 15.7097 17.0842 15.624 16.7256 15.4848C16.5272 15.4106 16.3365 15.3171 16.1564 15.2056L16.1316 15.1894L16.1089 15.1711C15.8117 14.9188 15.5792 14.5991 15.4308 14.2386C15.2869 13.8887 15.2137 13.5139 15.2152 13.1357C15.215 12.772 15.28 12.4112 15.4071 12.0705C15.5358 11.7229 15.7334 11.405 15.9882 11.1358C16.2928 10.8189 16.663 10.5724 17.0728 10.4135C17.2984 10.327 17.5326 10.2648 17.7714 10.228" fill="#B1E01B"></path><path d="M20.0479 2.33691C21.2558 3.65475 22.1824 5.20499 22.7711 6.89296C23.243 8.249 23.4835 9.6747 23.4827 11.1105C23.4824 11.5671 23.4587 12.0234 23.4115 12.4775C23.7949 11.3483 23.9994 10.1661 24.0174 8.97369C24.0237 8.1306 23.8885 7.29243 23.6174 6.49406C23.3771 5.80067 23.0285 5.1497 22.5846 4.56534C21.8873 3.66988 21.0265 2.9148 20.0479 2.34015" fill="#B1E01B"></path><mask id="mask3_4624_27049" style="mask-type:luminance" maskUnits="userSpaceOnUse" x="16" y="30" width="3" height="4">
<path d="M16.3812 31.0364C16.3435 31.4676 16.3219 31.8848 16.3219 32.2956C16.3222 32.6996 16.3427 33.1033 16.3834 33.5052L18.2302 32.2708L16.1699 30.894L16.3812 31.0364Z" fill="white"></path>
</mask><g mask="url(#mask3_4624_27049)">
<path d="M17.2676 29.8661L14.8672 32.1152L17.134 34.5345L19.5344 32.2854L17.2676 29.8661Z" fill="url(#paint3_linear_4624_27049)"></path>
</g><mask id="mask4_4624_27049" style="mask-type:luminance" maskUnits="userSpaceOnUse" x="6" y="30" width="9" height="7">
<path d="M6.08984 36.3443H12.0884L14.9076 34.4921C14.7861 33.7668 14.7259 33.0325 14.7276 32.2971C14.7307 31.6969 14.7667 31.0973 14.8354 30.501L6.08984 36.3443Z" fill="white"></path>
</mask><g mask="url(#mask4_4624_27049)">
<path d="M10.7891 26.1006L3.17578 33.2305L10.2113 40.743L17.8246 33.6132L10.7891 26.1006Z" fill="url(#paint4_linear_4624_27049)"></path>
</g><mask id="mask5_4624_27049" style="mask-type:luminance" maskUnits="userSpaceOnUse" x="7" y="19" width="26" height="18">
<path d="M7.2159 22.1419C7.16846 24.6387 8.94086 24.9859 8.94086 24.9859C6.02029 26.603 8.03312 29.9031 8.03312 29.9031C8.12584 29.7284 8.25627 29.4977 8.42553 29.239C8.82489 28.5974 9.34345 28.0382 9.95319 27.5917C10.4891 27.2914 11.1026 27.1584 11.7147 27.2097C12.3268 27.261 12.9096 27.4943 13.388 27.8795L26.0622 36.3501H32.1081L7.2515 19.7334C7.24503 20.2832 7.23422 21.1856 7.2159 22.1419Z" fill="white"></path>
</mask><g mask="url(#mask5_4624_27049)">
<path d="M19.9167 6.71443L-2.27246 27.4946L18.2071 49.3627L40.3962 28.5825L19.9167 6.71443Z" fill="url(#paint5_linear_4624_27049)"></path>
</g><mask id="mask6_4624_27049" style="mask-type:luminance" maskUnits="userSpaceOnUse" x="19" y="19" width="12" height="11">
<path d="M19.9688 27.0714L22.9874 29.0917L24.8083 27.8745C26.7004 26.638 27.8011 27.287 28.2421 27.5867C28.6694 27.8874 29.0488 28.2509 29.3676 28.6648C29.6701 29.0518 29.9381 29.4644 30.1686 29.8981C30.1837 29.8755 30.1967 29.8529 30.2118 29.8313C30.4748 29.3591 31.9421 26.4612 29.2652 24.9799C29.2652 24.9799 31.0322 24.6327 30.9902 22.1358C30.9718 21.1774 30.96 20.2729 30.9535 19.7241L19.9688 27.0714Z" fill="white"></path>
</mask><g mask="url(#mask6_4624_27049)">
<path d="M26.3526 13.7468L14.8945 24.4829L25.5731 35.8796L37.0312 25.1435L26.3526 13.7468Z" fill="url(#paint6_linear_4624_27049)"></path>
</g><defs>
<linearGradient id="paint0_linear_4624_27049" x1="17.3559" y1="0.426768" x2="17.306" y2="25.1486" gradientUnits="userSpaceOnUse">
<stop stop-color="#82C341"></stop>
<stop offset="1" stop-color="#37BEC1"></stop>
</linearGradient>
<linearGradient id="paint1_linear_4624_27049" x1="19.5212" y1="2.44947" x2="22.5769" y2="43.7088" gradientUnits="userSpaceOnUse">
<stop stop-color="#080A4F"></stop>
<stop offset="1" stop-color="#02041C"></stop>
</linearGradient>
<linearGradient id="paint2_linear_4624_27049" x1="3.8353" y1="1.65764" x2="7.89737" y2="45.3074" gradientUnits="userSpaceOnUse">
<stop stop-color="#080A4F"></stop>
<stop offset="1" stop-color="#02041C"></stop>
</linearGradient>
<linearGradient id="paint3_linear_4624_27049" x1="17.134" y1="34.5345" x2="19.4142" y2="31.456" gradientUnits="userSpaceOnUse">
<stop stop-color="#8C5E2C"></stop>
<stop offset="1" stop-color="#E0AD70"></stop>
</linearGradient>
<linearGradient id="paint4_linear_4624_27049" x1="10.2113" y1="40.743" x2="17.4022" y2="30.9628" gradientUnits="userSpaceOnUse">
<stop stop-color="#8C5E2C"></stop>
<stop offset="1" stop-color="#E0AD70"></stop>
</linearGradient>
<linearGradient id="paint5_linear_4624_27049" x1="18.2071" y1="49.3627" x2="39.1575" y2="20.8543" gradientUnits="userSpaceOnUse">
<stop stop-color="#8C5E2C"></stop>
<stop offset="1" stop-color="#E0AD70"></stop>
</linearGradient>
<linearGradient id="paint6_linear_4624_27049" x1="25.5731" y1="35.8796" x2="36.418" y2="21.1654" gradientUnits="userSpaceOnUse">
<stop stop-color="#8C5E2C"></stop>
<stop offset="1" stop-color="#E0AD70"></stop>
</linearGradient>
<clipPath id="SvgjsClipPath2185"><rect width="1000" height="1000" x="0" y="0" rx="200" ry="200"></rect></clipPath></defs></svg></g></g></svg>