<svg width="97" height="44" viewBox="0 0 97 44" fill="none" xmlns="http://www.w3.org/2000/svg">
<mask id="mask0_4624_26968" style="mask-type:luminance" maskUnits="userSpaceOnUse" x="0" y="15" width="18" height="14">
<path d="M17.7027 15.605L0 28.209L0.103798 28.3548L17.8065 15.7508L17.7027 15.605Z" fill="white"/>
</mask>
<g mask="url(#mask0_4624_26968)">
<path d="M17.812 15.6133H-0.00683594V28.3456H17.812V15.6133Z" fill="url(#paint0_linear_4624_26968)"/>
</g>
<mask id="mask1_4624_26968" style="mask-type:luminance" maskUnits="userSpaceOnUse" x="25" y="10" width="30" height="23">
<path d="M37.1919 17.2285C37.276 16.7973 37.5229 13.4164 37.5714 12.9097C37.3267 12.8795 35.2977 15.1791 35.5629 18.3746L25.1377 25.7153L25.2315 25.849L35.55 18.5859C35.6065 19.2353 35.4703 19.8871 35.1583 20.4595C34.8463 21.0319 34.3724 21.4996 33.7959 21.804C32.0311 22.5893 30.3885 23.6245 28.9186 24.8777C27.8262 25.9787 26.9642 27.2864 26.3829 28.7243C24.824 32.2012 29.6312 32.3273 32.016 32.4977C39.4204 32.8987 46.7935 31.5845 54.0523 30.2714V27.4683L53.951 27.4834C48.5799 28.1605 32.8202 30.7404 28.5962 27.9589C27.9494 27.4694 28.4539 26.6501 28.8755 26.1951C30.1401 24.7688 32.0505 24.2362 33.6482 23.2842C34.6446 22.6498 35.4801 21.7928 36.0892 20.7808C36.6983 19.7687 37.0644 18.6292 37.1585 17.4517L46.2792 11.0316L46.1854 10.8979L37.193 17.2275" fill="white"/>
</mask>
<g mask="url(#mask1_4624_26968)">
<path d="M54.0536 10.8989H24.8242V32.8943H54.0536V10.8989Z" fill="url(#paint1_linear_4624_26968)"/>
</g>
<mask id="mask2_4624_26968" style="mask-type:luminance" maskUnits="userSpaceOnUse" x="31" y="9" width="12" height="8">
<path d="M39.8133 9.19531C39.2828 9.54462 38.7539 9.89608 38.2263 10.2497C37.4371 10.779 36.6523 11.3138 35.8814 11.8668C35.4897 12.1486 35.1024 12.4361 34.7193 12.7293C34.288 13.0635 33.8568 13.4031 33.4385 13.7567C33.0429 14.1142 32.6966 14.5228 32.4089 14.9718C32.0233 15.5114 31.6753 16.0769 31.3674 16.6644C31.3308 16.7388 31.2435 16.8552 31.3362 16.9156C31.4289 16.9759 31.5044 16.866 31.569 16.7981C31.9107 16.4492 32.2827 16.1314 32.6806 15.8483C33.6638 15.113 34.6751 14.4176 35.6928 13.732C36.6221 13.1052 37.5565 12.4846 38.4958 11.8701L39.865 10.9709C40.7563 10.3866 41.6432 9.79545 42.5258 9.19747L39.8133 9.19531Z" fill="white"/>
</mask>
<g mask="url(#mask2_4624_26968)">
<path d="M42.5221 9.19531H31.2441V16.9673H42.5221V9.19531Z" fill="url(#paint2_linear_4624_26968)"/>
</g>
<mask id="mask3_4624_26968" style="mask-type:luminance" maskUnits="userSpaceOnUse" x="32" y="9" width="7" height="5">
<path d="M37.8797 9.19531L37.3914 9.51874C36.8793 9.85511 36.365 10.1904 35.8562 10.5322C35.3635 10.8631 34.8751 11.1984 34.404 11.5596C34.2703 11.6624 34.1387 11.7673 34.0094 11.8744C33.9641 11.911 33.9188 11.9477 33.8746 11.9822C33.7091 12.1297 33.5641 12.2986 33.4434 12.4846C33.2838 12.708 33.1397 12.9422 33.0121 13.1854C32.997 13.2155 32.9615 13.2641 32.9992 13.2932C33.0369 13.3223 33.0693 13.2727 33.0952 13.2447C33.2367 13.1001 33.3907 12.9684 33.5555 12.8511C33.9619 12.5471 34.3813 12.2593 34.8029 11.9746L34.9527 11.8755C35.476 11.524 36.0017 11.1761 36.53 10.8319C37.1632 10.4164 37.791 9.99311 38.4134 9.56187C38.5838 9.44328 38.7537 9.32325 38.9234 9.20178L37.8797 9.19531Z" fill="white"/>
</mask>
<g mask="url(#mask3_4624_26968)">
<path d="M38.9247 9.19531H32.9639V13.3083H38.9247V9.19531Z" fill="url(#paint3_linear_4624_26968)"/>
</g>
<mask id="mask4_4624_26968" style="mask-type:luminance" maskUnits="userSpaceOnUse" x="34" y="18" width="11" height="9">
<path d="M41.3383 18.2947C41.2687 18.3979 41.2108 18.5085 41.1658 18.6246C39.9174 21.9968 38.3962 24.1983 35.1231 25.8478C34.9182 25.989 33.4822 26.5572 34.2487 26.7178C37.0787 26.6715 37.9143 26.2769 39.5077 23.9266C39.7546 25.0942 40.5642 26.3642 41.9173 26.2704C43.6304 26.0354 44.1608 23.586 44.4141 22.1575C44.4368 21.9742 44.6944 20.7775 44.2503 21.1872C44.1677 21.462 44.0013 21.704 43.7744 21.8796C43.5475 22.0552 43.2715 22.1556 42.9848 22.1666C42.6981 22.1777 42.4151 22.0989 42.1754 21.9412C41.9357 21.7836 41.7512 21.555 41.6477 21.2875C41.373 20.3381 41.3618 19.3318 41.6154 18.3766C41.6218 18.3392 41.6159 18.3006 41.5986 18.2668C41.5813 18.233 41.5536 18.2057 41.5194 18.189C41.5049 18.1822 41.4891 18.1785 41.4731 18.1782C41.4095 18.1782 41.3653 18.244 41.3394 18.286" fill="white"/>
</mask>
<g mask="url(#mask4_4624_26968)">
<path d="M44.6946 18.1826H33.4824V26.7212H44.6946V18.1826Z" fill="url(#paint4_linear_4624_26968)"/>
</g>
<mask id="mask5_4624_26968" style="mask-type:luminance" maskUnits="userSpaceOnUse" x="45" y="17" width="8" height="11">
<path d="M52.1064 17.8905C52.0504 17.993 52 18.0985 51.9555 18.2064C51.4666 19.6105 50.8438 20.9644 50.0957 22.2493C49.7723 22.8094 49.3871 23.3316 48.9476 23.8061C48.599 24.1667 48.2266 24.5035 47.8328 24.8141C47.116 25.3674 46.37 25.8816 45.5979 26.3547C45.4199 26.458 45.257 26.5853 45.1138 26.7331C45.0787 26.7696 45.0543 26.8151 45.0435 26.8646C45.0326 26.914 45.0357 26.9656 45.0524 27.0134C45.089 27.1115 45.1925 27.1212 45.2917 27.1212C45.3607 27.1212 45.4308 27.1212 45.4998 27.1212C45.6006 27.1294 45.7019 27.1294 45.8027 27.1212C46.2178 27.0522 46.6329 26.98 47.0458 26.897C47.5726 26.8074 48.0776 26.6182 48.5336 26.3396C49.0207 25.9978 49.4361 25.5638 49.7561 25.062C50.2716 24.2857 50.6983 23.4539 51.0283 22.5824C51.4898 21.4095 51.8804 20.21 52.198 18.9902C52.3247 18.666 52.395 18.3225 52.4061 17.9746C52.4007 17.9035 52.432 17.814 52.3252 17.7892C52.3075 17.7851 52.2895 17.783 52.2713 17.7827C52.2363 17.7823 52.2018 17.7923 52.1724 17.8115C52.1431 17.8307 52.1201 17.8582 52.1064 17.8905Z" fill="white"/>
</mask>
<g mask="url(#mask5_4624_26968)">
<path d="M52.4338 17.7808H45.0176V27.1322H52.4338V17.7808Z" fill="url(#paint5_linear_4624_26968)"/>
</g>
<mask id="mask6_4624_26968" style="mask-type:luminance" maskUnits="userSpaceOnUse" x="50" y="12" width="4" height="5">
<path d="M51.586 12.3674C51.5198 12.4659 51.4551 12.5654 51.3919 12.666C50.9868 13.3021 50.6456 13.9767 50.3731 14.6799C50.3393 14.7427 50.3182 14.8115 50.3112 14.8825C50.3042 14.9535 50.3113 15.0251 50.3322 15.0933C50.353 15.1615 50.3872 15.2248 50.4327 15.2797C50.4782 15.3346 50.5342 15.3799 50.5973 15.413C51.0642 15.6933 51.5105 16.007 51.973 16.2938C52.0321 16.3401 52.1002 16.3734 52.173 16.3918C52.2457 16.4102 52.3215 16.4132 52.3955 16.4007C52.4695 16.3881 52.54 16.3602 52.6026 16.3188C52.6652 16.2773 52.7184 16.2233 52.7589 16.1601C53.0341 15.8484 53.2795 15.5116 53.492 15.1543C53.6965 14.829 53.8193 14.4591 53.85 14.0762C53.85 14.019 53.85 13.9619 53.85 13.9058C53.8458 13.8814 53.8389 13.8576 53.8295 13.8347C53.7065 13.3856 53.4564 12.9817 53.1093 12.6714C52.8514 12.449 52.5526 12.2791 52.2296 12.1712C52.1499 12.141 52.0657 12.1243 51.9805 12.1216C51.8987 12.1249 51.8193 12.1501 51.7505 12.1944C51.6817 12.2388 51.626 12.3007 51.5892 12.3739" fill="white"/>
</mask>
<g mask="url(#mask6_4624_26968)">
<path d="M53.8518 12.1152H50.251V16.4837H53.8518V12.1152Z" fill="url(#paint6_linear_4624_26968)"/>
</g>
<mask id="mask7_4624_26968" style="mask-type:luminance" maskUnits="userSpaceOnUse" x="43" y="13" width="4" height="6">
<path d="M44.5375 14.0709C44.0473 14.7934 43.6407 15.5692 43.3257 16.3835C43.2604 16.5111 43.2478 16.6593 43.2905 16.7961C43.3333 16.933 43.428 17.0477 43.5543 17.1155C44.0057 17.408 44.4592 17.6977 44.9149 17.9844C44.9741 18.0334 45.0431 18.0692 45.1173 18.0893C45.1915 18.1094 45.2691 18.1134 45.345 18.101C45.4208 18.0887 45.4932 18.0602 45.5572 18.0176C45.6211 17.975 45.6753 17.9192 45.7159 17.854C45.9853 17.5456 46.227 17.2141 46.4382 16.8632C46.6474 16.5321 46.7728 16.1551 46.8037 15.7646C46.8037 15.7075 46.8037 15.6504 46.8037 15.5943C46.7986 15.5702 46.791 15.5467 46.781 15.5242C46.6758 15.1346 46.4736 14.778 46.1933 14.4877C45.9129 14.1973 45.5636 13.9827 45.1779 13.8639C45.0996 13.8343 45.0169 13.8179 44.9332 13.8154C44.8508 13.8191 44.7708 13.8447 44.7016 13.8896C44.6324 13.9345 44.5765 13.9971 44.5397 14.0709" fill="white"/>
</mask>
<g mask="url(#mask7_4624_26968)">
<path d="M46.806 13.8154H43.2041V18.1839H46.806V13.8154Z" fill="url(#paint7_linear_4624_26968)"/>
</g>
<mask id="mask8_4624_26968" style="mask-type:luminance" maskUnits="userSpaceOnUse" x="21" y="28" width="4" height="5">
<path d="M22.2807 28.6198C21.7903 29.3425 21.3837 30.1187 21.0689 30.9334C21.0036 31.061 20.9909 31.2092 21.0337 31.3461C21.0764 31.4829 21.1711 31.5976 21.2975 31.6654C21.7488 31.9579 22.2023 32.2476 22.658 32.5343C22.7173 32.5833 22.7863 32.6191 22.8605 32.6392C22.9347 32.6593 23.0123 32.6633 23.0881 32.6509C23.164 32.6386 23.2364 32.6101 23.3003 32.5675C23.3643 32.5249 23.4184 32.4691 23.459 32.4039C23.7284 32.0954 23.9701 31.7639 24.1814 31.4131C24.3906 31.0816 24.516 30.7042 24.5469 30.3135C24.5469 30.2563 24.5469 30.1992 24.5469 30.1431C24.5416 30.1191 24.5341 30.0956 24.5242 30.0731C24.419 29.6834 24.2168 29.3268 23.9364 29.0365C23.6561 28.7462 23.3068 28.5316 22.9211 28.4128C22.8428 28.3831 22.7601 28.3667 22.6763 28.3643C22.5939 28.3679 22.514 28.3935 22.4448 28.4384C22.3756 28.4833 22.3197 28.546 22.2828 28.6198" fill="white"/>
</mask>
<g mask="url(#mask8_4624_26968)">
<path d="M24.5481 28.3643H20.9473V32.7327H24.5481V28.3643Z" fill="url(#paint8_linear_4624_26968)"/>
</g>
<mask id="mask9_4624_26968" style="mask-type:luminance" maskUnits="userSpaceOnUse" x="8" y="28" width="8" height="5">
<path d="M12.9015 28.6197C12.6098 29.0544 12.3469 29.5078 12.1145 29.977C11.9992 29.6089 11.7962 29.2742 11.523 29.0019C11.2497 28.7296 10.9144 28.5278 10.5459 28.4138C10.4906 28.3845 10.4301 28.3666 10.3678 28.3612C10.3055 28.3557 10.2428 28.3628 10.1833 28.382C10.1238 28.4012 10.0688 28.4321 10.0214 28.4729C9.97406 28.5138 9.93538 28.5636 9.90764 28.6197C9.41743 29.3425 9.0109 30.1187 8.69586 30.9333C8.63055 31.0609 8.6179 31.2091 8.66063 31.346C8.70337 31.4828 8.79807 31.5975 8.92441 31.6653C9.37578 31.9578 9.8293 32.2475 10.285 32.5342C10.3442 32.5834 10.4133 32.6193 10.4876 32.6395C10.5619 32.6597 10.6397 32.6638 10.7157 32.6514C10.7917 32.6391 10.8642 32.6106 10.9282 32.5679C10.9923 32.5251 11.0465 32.4692 11.0871 32.4038C11.3288 32.1237 11.5493 31.8261 11.7469 31.5133C11.7961 31.5723 11.8543 31.6232 11.9194 31.6642C12.3707 31.9567 12.8243 32.2464 13.2799 32.5332C13.3392 32.5821 13.4082 32.6179 13.4824 32.638C13.5566 32.6581 13.6342 32.6621 13.7101 32.6498C13.7859 32.6374 13.8583 32.609 13.9222 32.5664C13.9862 32.5238 14.0403 32.468 14.081 32.4027C14.3503 32.0943 14.592 31.7627 14.8033 31.4119C15.0124 31.0804 15.1378 30.703 15.1688 30.3123C15.1688 30.2551 15.1688 30.198 15.1688 30.1419C15.1637 30.1179 15.1561 30.0944 15.1461 30.0719C15.0409 29.6822 14.8387 29.3256 14.5583 29.0353C14.278 28.745 13.9287 28.5304 13.543 28.4116C13.4647 28.382 13.382 28.3656 13.2983 28.3631C13.2158 28.3667 13.1359 28.3923 13.0667 28.4372C12.9975 28.4822 12.9416 28.5448 12.9048 28.6186" fill="white"/>
</mask>
<g mask="url(#mask9_4624_26968)">
<path d="M15.1689 28.3105H8.57422V32.7329H15.1689V28.3105Z" fill="url(#paint9_linear_4624_26968)"/>
</g>
<mask id="mask10_4624_26968" style="mask-type:luminance" maskUnits="userSpaceOnUse" x="8" y="13" width="6" height="5">
<path d="M11.8804 13.2794C11.7164 13.3516 11.5775 13.471 11.4815 13.6223C11.338 13.851 11.2474 14.1088 11.2163 14.3769C11.1753 14.6723 11.1494 14.9699 11.116 15.2739C11.1007 15.2715 11.0865 15.2647 11.075 15.2544C11.0635 15.2441 11.0553 15.2306 11.0513 15.2157C10.9339 14.9785 10.7812 14.7604 10.5985 14.5688C10.2985 14.2585 9.92896 14.0238 9.52043 13.8843C9.4787 13.8587 9.43226 13.8419 9.38387 13.8348C9.33549 13.8276 9.28616 13.8303 9.23885 13.8427C9.19153 13.8551 9.1472 13.8769 9.10852 13.9068C9.06983 13.9367 9.03759 13.9742 9.01372 14.0169C8.84847 14.245 8.72475 14.5004 8.64825 14.7715C8.63243 14.8259 8.6386 14.8842 8.66542 14.934C8.69224 14.9838 8.73757 15.0211 8.79163 15.0378C8.873 15.0728 8.96075 15.0904 9.0493 15.0896C9.15237 15.0843 9.25344 15.0591 9.34685 15.0152C9.48426 14.9458 9.64092 14.9243 9.79193 14.9542C9.94294 14.9841 10.0796 15.0636 10.1802 15.1801C10.3211 15.3151 10.439 15.472 10.5295 15.6448C10.6973 16.0044 10.746 16.4081 10.6686 16.7973C10.6242 17.039 10.5933 17.2831 10.5759 17.5282C10.5759 17.5563 10.5532 17.5929 10.5921 17.6102C10.6309 17.6274 10.6686 17.5972 10.6999 17.5778C10.8431 17.4859 10.9557 17.3534 11.0233 17.1973C11.2755 16.6826 11.4478 16.1326 11.5343 15.5661C11.5936 15.2114 11.599 14.8535 11.6335 14.4966C11.6358 14.3624 11.6863 14.2334 11.7758 14.1333C11.8129 14.0927 11.8608 14.0635 11.9139 14.0492C11.967 14.0349 12.023 14.036 12.0755 14.0524C12.2874 14.0895 12.4775 14.205 12.6081 14.3759C12.6663 14.4621 12.7159 14.4416 12.7795 14.392C12.8573 14.3316 12.9191 14.2531 12.9596 14.1632C13 14.0734 13.0177 13.975 13.0113 13.8767C12.9987 13.6893 12.9155 13.5136 12.7785 13.3851C12.6414 13.2566 12.4607 13.185 12.2728 13.1846C12.1385 13.1868 12.006 13.2165 11.8836 13.2719" fill="white"/>
</mask>
<g mask="url(#mask10_4624_26968)">
<path d="M13.0084 13.1919H8.61621V17.6358H13.0084V13.1919Z" fill="url(#paint10_linear_4624_26968)"/>
</g>
<mask id="mask11_4624_26968" style="mask-type:luminance" maskUnits="userSpaceOnUse" x="25" y="12" width="6" height="6">
<path d="M27.8413 15.0744C27.836 15.0383 27.8391 15.0015 27.8504 14.9668C27.8618 14.9322 27.881 14.9007 27.9066 14.8747C27.9322 14.8488 27.9636 14.8292 27.9981 14.8174C28.0326 14.8057 28.0693 14.8021 28.1055 14.807C28.177 14.807 28.2455 14.8354 28.2961 14.8859C28.3466 14.9365 28.375 15.005 28.375 15.0765C28.375 15.148 28.3466 15.2166 28.2961 15.2671C28.2455 15.3177 28.177 15.3461 28.1055 15.3461C28.0693 15.351 28.0326 15.3474 27.9981 15.3356C27.9636 15.3239 27.9322 15.3043 27.9066 15.2783C27.881 15.2524 27.8618 15.2209 27.8504 15.1862C27.8391 15.1516 27.836 15.1147 27.8413 15.0787M27.6721 13.1974C27.6773 13.3933 27.7085 13.5876 27.7648 13.7753C27.7766 13.8173 27.7874 13.8583 27.8014 13.9025C27.8733 14.1325 27.9477 14.3628 28.0246 14.5935C27.9659 14.6072 27.9091 14.6278 27.8553 14.655C27.6397 14.2446 27.4816 13.9517 27.381 13.7763C27.3271 13.6793 27.2904 13.6168 27.2732 13.5909C27.2246 13.4949 27.1524 13.4128 27.0634 13.3522C26.9744 13.2917 26.8715 13.2548 26.7643 13.2448C26.4768 13.2448 26.3331 13.4008 26.3331 13.7127C26.3317 13.7336 26.3317 13.7544 26.3331 13.7753C26.3546 13.8793 26.3994 13.9772 26.4642 14.0614C26.529 14.1456 26.6121 14.2141 26.7072 14.2615C26.7884 14.3154 27.1298 14.4847 27.7314 14.7693C27.6977 14.8423 27.6727 14.919 27.657 14.9978C27.4313 14.9173 27.2031 14.8386 26.9724 14.7617C26.7528 14.6807 26.5217 14.6352 26.2878 14.627C25.9442 14.627 25.7725 14.7779 25.7725 15.0798C25.7725 15.3816 25.9442 15.5283 26.2878 15.5196C26.5208 15.5122 26.7514 15.4708 26.9724 15.3967C27.2031 15.3191 27.4313 15.244 27.657 15.1714C27.673 15.2426 27.698 15.3114 27.7314 15.3762C27.1348 15.6637 26.7934 15.8359 26.7072 15.8926C26.6011 15.9462 26.5105 16.0261 26.4441 16.1246C26.3777 16.2231 26.3376 16.337 26.3277 16.4554C26.3277 16.7587 26.4714 16.91 26.7589 16.9093C26.8653 16.9001 26.9677 16.8643 27.0567 16.8052C27.1456 16.746 27.2182 16.6654 27.2678 16.5708C27.326 16.4852 27.5204 16.1306 27.851 15.5067C27.91 15.5332 27.9714 15.5541 28.0343 15.5692L27.8036 16.2603C27.7214 16.4867 27.6756 16.7246 27.6678 16.9654C27.6678 17.2816 27.8115 17.4397 28.099 17.4397C28.3865 17.4397 28.5335 17.2816 28.5399 16.9654C28.4711 16.49 28.3629 16.0213 28.2165 15.5638C28.2673 15.5516 28.3155 15.5304 28.3588 15.5013C28.6708 16.1072 28.8605 16.4619 28.9281 16.5654C28.9767 16.6592 29.0481 16.7393 29.1357 16.7984C29.2232 16.8576 29.3242 16.8938 29.4294 16.9039C29.4903 16.9117 29.5521 16.9052 29.6101 16.8849C29.668 16.8646 29.7205 16.8312 29.7632 16.7871C29.806 16.7431 29.838 16.6897 29.8565 16.6312C29.8751 16.5727 29.8798 16.5107 29.8703 16.45C29.8604 16.3316 29.8203 16.2177 29.7539 16.1192C29.6875 16.0207 29.5969 15.9408 29.4908 15.8873C29.4139 15.8377 29.0797 15.6655 28.4882 15.3708C28.5176 15.305 28.5403 15.2364 28.5561 15.166C28.998 15.325 29.4539 15.4419 29.9178 15.5153C30.2656 15.5153 30.4396 15.3687 30.4396 15.0755C30.4396 14.7822 30.2656 14.6313 29.9178 14.6226C29.6817 14.6304 29.4484 14.6759 29.2267 14.7574C29.001 14.8336 28.7775 14.9123 28.5561 14.9935C28.541 14.9153 28.5183 14.8387 28.4882 14.765C29.0891 14.4717 29.4233 14.3025 29.4908 14.2572C29.5852 14.2087 29.6677 14.14 29.7323 14.056C29.797 13.9719 29.8423 13.8746 29.8649 13.771C29.8664 13.7501 29.8664 13.7292 29.8649 13.7084C29.8649 13.3965 29.7179 13.2405 29.424 13.2405C29.318 13.2513 29.2165 13.2886 29.1289 13.3492C29.0412 13.4097 28.9703 13.4913 28.9227 13.5866C28.9022 13.6179 28.8666 13.6793 28.8149 13.772C28.7171 13.9503 28.5626 14.2432 28.3513 14.6507C28.2946 14.6162 28.2327 14.591 28.168 14.5763C28.2449 14.3506 28.324 14.1246 28.4052 13.8982C28.4192 13.854 28.43 13.813 28.4418 13.771C28.4982 13.5833 28.5294 13.389 28.5346 13.1931C28.5346 12.8632 28.3876 12.6982 28.0936 12.6982C27.7996 12.6982 27.6559 12.8632 27.6624 13.1931" fill="white"/>
</mask>
<g mask="url(#mask11_4624_26968)">
<path d="M30.4438 12.6982H25.7734V17.4365H30.4438V12.6982Z" fill="url(#paint11_linear_4624_26968)"/>
</g>
<mask id="mask12_4624_26968" style="mask-type:luminance" maskUnits="userSpaceOnUse" x="2" y="9" width="7" height="23">
<path d="M5.39614 11.6762C4.65765 13.2649 4.07386 14.9209 3.65286 16.6215C3.06637 19.2089 2.83566 21.3209 5.31205 22.4346C3.67119 24.6425 2.13921 27.009 2.07129 29.3797C2.19204 32.0027 4.66843 32.6722 6.10985 30.2034C6.48991 29.712 6.74279 29.1344 6.84604 28.5219C6.94929 27.9094 6.89972 27.2808 6.70172 26.692C6.46167 26.2723 6.21298 26.0624 5.95568 26.0624C5.85236 26.2068 5.77401 26.3675 5.72389 26.5378C5.47521 27.1466 5.28654 27.451 5.15789 27.451C4.70724 27.3302 4.52289 26.5238 4.52828 25.9848C4.64071 24.7396 5.12447 23.5569 5.91687 22.5898C5.99377 22.4871 6.0581 22.3969 6.10985 22.3192C6.40093 21.865 6.701 21.3763 7.01006 20.853C7.53427 20.0835 7.87336 19.2031 8.00083 18.2807C8.00083 18.0068 7.8057 18.0209 7.60086 18.0349C7.52915 18.0418 7.45694 18.0418 7.38524 18.0349C5.75731 17.9271 5.37458 17.0851 5.35302 15.7202C5.4586 14.5364 5.67517 13.3651 5.99988 12.2218C6.18028 11.5957 6.37757 10.9528 6.59176 10.293C6.71178 9.90709 6.69885 9.7098 6.55294 9.70117C6.36464 9.70117 5.98083 10.3592 5.40154 11.6752" fill="white"/>
</mask>
<g mask="url(#mask12_4624_26968)">
<path d="M8.00299 9.70215H2.07129V32.6721H8.00299V9.70215Z" fill="url(#paint12_linear_4624_26968)"/>
</g>
<mask id="mask13_4624_26968" style="mask-type:luminance" maskUnits="userSpaceOnUse" x="8" y="20" width="10" height="8">
<path d="M16.6871 21.0135C16.557 21.2061 16.3773 21.4767 16.1481 21.8253C15.9547 22.1391 15.6752 22.3906 15.3427 22.5497C14.5654 22.8031 13.7322 22.8311 12.9396 22.6306C12.2287 22.6272 11.5446 22.9019 11.0335 23.396C9.87376 24.4563 8.94584 25.7451 8.30811 27.1813C8.13777 27.6017 8.13311 27.8389 8.2941 27.8928C8.41054 27.9194 8.74151 27.6955 9.28703 27.2211C9.6112 26.9242 10.0047 26.7132 10.4315 26.6078C10.8583 26.5023 11.3048 26.5056 11.73 26.6174C12.3877 26.7892 13.0829 26.7494 13.7167 26.5036C14.3506 26.2578 14.8908 25.8186 15.2608 25.2482C15.8969 24.5421 17.2606 22.0247 17.2067 21.0436C17.2067 20.828 17.1485 20.7202 17.0321 20.7202C16.9336 20.7202 16.8193 20.8165 16.6893 21.0091" fill="white"/>
</mask>
<g mask="url(#mask13_4624_26968)">
<path d="M17.2581 20.7246H8.12988V27.9198H17.2581V20.7246Z" fill="url(#paint13_linear_4624_26968)"/>
</g>
<mask id="mask14_4624_26968" style="mask-type:luminance" maskUnits="userSpaceOnUse" x="14" y="8" width="13" height="23">
<path d="M19.9802 15.9865L18.6423 19.0343C18.0191 20.5177 18.127 23.1311 17.9092 24.69C17.7985 26.5092 17.4835 28.3101 16.9702 30.0589C16.876 30.3579 16.8588 30.5074 16.9184 30.5074C17.1498 30.4743 17.4542 30.1028 17.8316 29.3927C18.2235 28.6482 18.5548 27.8735 18.8223 27.0758C19.6945 24.4021 19.6169 20.646 20.0179 17.7524C20.0729 17.3783 20.2443 16.1913 20.3522 15.8463C20.3953 15.6889 20.3593 15.6099 20.2443 15.6092C20.1725 15.6092 20.0826 15.7339 19.9748 15.9833M25.0915 9.54702C24.4836 10.1483 23.7481 10.6049 22.9396 10.883C22.131 11.1611 21.2703 11.2535 20.4211 11.1534C19.7668 11.0891 19.1062 11.1546 18.4772 11.3461C17.8482 11.5376 17.2632 11.8513 16.7556 12.2692C15.8498 12.9031 15.1006 13.7353 14.5649 14.7025C14.4571 14.9181 14.4147 15.0414 14.4377 15.0723C14.4819 15.1488 14.6113 15.1273 14.6921 15.1068C15.4812 14.5315 16.414 14.1856 17.3874 14.1074C17.8779 14.0792 18.3696 14.0792 18.8601 14.1074C19.121 14.1182 19.3991 14.1289 19.7517 14.1268C20.6159 14.0884 21.4622 13.8677 22.2351 13.4792C23.0081 13.0907 23.6901 12.5431 24.2365 11.8725C24.6469 11.4601 25.0166 11.0092 25.3405 10.5259C25.5852 10.1227 26.5976 8.75246 26.1092 8.6123C25.7448 8.7945 25.4268 9.29582 25.0915 9.54917" fill="white"/>
</mask>
<g mask="url(#mask14_4624_26968)">
<path d="M26.6019 8.61328H14.415V30.5105H26.6019V8.61328Z" fill="url(#paint14_linear_4624_26968)"/>
</g>
<mask id="mask15_4624_26968" style="mask-type:luminance" maskUnits="userSpaceOnUse" x="21" y="14" width="6" height="13">
<path d="M21.4034 22.7664V22.8818C21.3271 23.8693 21.4856 24.8608 21.8659 25.7754C21.9968 26.1037 22.2184 26.3881 22.5047 26.5954C22.791 26.8027 23.1303 26.9243 23.4831 26.9462C25.7406 26.8653 26.6257 22.7416 26.7756 21.0684C26.8015 20.7945 26.7458 20.6573 26.6085 20.6566C26.4885 20.6566 26.3641 20.8474 26.2355 21.229C26.1214 21.5799 25.9634 21.915 25.7654 22.2263C25.6671 22.3709 25.5405 22.4942 25.3932 22.5885C25.2459 22.6829 25.081 22.7464 24.9085 22.7752C24.736 22.804 24.5594 22.7976 24.3895 22.7562C24.2195 22.7149 24.0597 22.6395 23.9197 22.5346C23.6065 22.2528 23.365 21.9005 23.215 21.5068C23.065 21.1131 23.0109 20.6893 23.0572 20.2706V19.669C23.1241 16.7776 23.8895 14.4941 23.4658 14.4941H23.4561C22.0136 14.4941 21.5501 20.8689 21.398 22.7621" fill="white"/>
</mask>
<g mask="url(#mask15_4624_26968)">
<path d="M26.8057 14.4976H21.3613V26.9464H26.8057V14.4976Z" fill="url(#paint15_linear_4624_26968)"/>
</g>
<path d="M70.722 18.298C68.9797 17.6458 67.3927 16.6371 66.0625 15.3364V17.3924L75.5584 23.738C75.9549 22.8511 76.3964 21.985 76.8812 21.1431C75.3719 19.5022 72.5289 18.8791 70.722 18.298Z" fill="#CCCCCC"/>
<path d="M64.5732 16.3975V17.5834L75.1666 24.6632C75.2561 24.4401 75.3499 24.218 75.4469 23.997C75.4836 23.9118 75.5213 23.8266 75.5548 23.7425L64.5732 16.3975Z" fill="#999999"/>
<path d="M77.9044 25.3045L89.7462 17.3643V15.3364C88.416 16.6371 86.829 17.6458 85.0867 18.298C83.3391 18.8553 80.4185 19.5162 78.7819 21.0665C78.07 22.2096 77.4437 23.4038 76.9082 24.6393L77.9044 25.3045Z" fill="#CCCCCC"/>
<path d="M77.9037 25.306L76.9032 24.6397C76.7696 24.9481 76.6402 25.2575 76.5205 25.568L77.8994 26.4898L91.2419 17.5502V16.3643L77.9037 25.306Z" fill="#999999"/>
<mask id="mask16_4624_26968" style="mask-type:luminance" maskUnits="userSpaceOnUse" x="71" y="0" width="13" height="26">
<path d="M76.5742 10.2284C76.0504 10.2953 75.554 10.5014 75.1369 10.8253C74.7198 11.1492 74.3971 11.5789 74.2024 12.0698C73.9885 12.6012 73.9433 13.1856 74.0729 13.7435C74.2026 14.3015 74.5007 14.8061 74.9269 15.1888C75.4472 15.5024 76.0333 15.6907 76.6389 15.7386C76.151 16.1305 75.551 16.357 74.9258 16.3855C72.0947 16.3855 71.4425 10.361 76.5732 10.2252M78.8512 2.33353C80.4925 3.25531 81.7564 4.72611 82.4208 6.48744C83.0121 8.45138 82.9397 10.5555 82.2148 12.4741C82.3985 10.6425 82.1939 8.7928 81.6143 7.04565C81.0347 5.2985 80.0932 3.69323 78.8512 2.3346M75.2169 0.394026C75.1871 0.514153 75.2008 0.64097 75.2557 0.751915C75.3106 0.862861 75.403 0.95074 75.5166 0.999918C76.3549 1.4014 77.115 1.949 77.7612 2.61707C79.0731 3.93024 80.0649 5.52804 80.6594 7.28648C81.254 9.04492 81.4354 10.9167 81.1896 12.7566C81.034 12.1452 80.7572 11.5713 80.3755 11.069C79.9938 10.5667 79.515 10.1462 78.9677 9.83254C78.4203 9.51888 77.8155 9.31843 77.1891 9.24309C76.5627 9.16776 75.9276 9.21907 75.3215 9.39399C74.712 9.49946 74.1326 9.73531 73.6227 10.0854C73.1128 10.4355 72.6846 10.8916 72.3672 11.4225C72.0499 11.9533 71.851 12.5465 71.784 13.1614C71.7171 13.7762 71.7837 14.3983 71.9794 14.985C72.1486 15.6466 72.5259 16.2364 73.0555 16.6675C73.5852 17.0985 74.2393 17.3481 74.9215 17.3795C75.558 17.3262 76.1773 17.1462 76.7432 16.8499C77.309 16.5537 77.8098 16.1473 78.2162 15.6545C78.3058 15.5589 78.3618 15.4367 78.3756 15.3064C78.3894 15.1761 78.3603 15.0449 78.2927 14.9327C78.2251 14.8204 78.1227 14.7333 78.0011 14.6846C77.8795 14.6358 77.7453 14.6282 77.6189 14.6627C77.2755 14.8026 76.9018 14.8516 76.5339 14.805C76.166 14.7583 75.8164 14.6176 75.5188 14.3964C75.259 14.1453 75.0821 13.821 75.0116 13.4667C74.9411 13.1125 74.9804 12.7451 75.1242 12.4137C75.2652 12.1321 75.4625 11.8823 75.7038 11.6799C75.9451 11.4775 76.2254 11.3268 76.5273 11.2369C76.8292 11.1471 77.1463 11.1201 77.459 11.1577C77.7718 11.1953 78.0735 11.2966 78.3455 11.4553C79.0152 11.9043 79.5371 12.5413 79.8454 13.2863C80.1537 14.0312 80.2346 14.8507 80.0781 15.6416C79.7089 17.3499 79.0133 18.9708 78.0296 20.4154C77.1114 21.8712 76.3287 23.4082 75.6913 25.007L76.5289 25.5676C77.1557 23.9574 77.9352 22.4108 78.8566 20.9491C79.2016 20.3583 82.2763 15.1877 82.9016 13.5102C85.5332 6.6567 82.2008 1.76645 75.867 0.018848C75.7999 0.000342821 75.7298 -0.00460121 75.6607 0.00430475C75.5917 0.0132107 75.5251 0.0357881 75.4649 0.0707177C75.4046 0.105647 75.352 0.152229 75.31 0.207741C75.2679 0.263252 75.2374 0.326581 75.2201 0.394026" fill="white"/>
</mask>
<g mask="url(#mask16_4624_26968)">
<path d="M71.1721 -0.214179L70.791 25.5625L85.5281 25.7804L85.9092 0.00369448L71.1721 -0.214179Z" fill="url(#paint16_linear_4624_26968)"/>
</g>
<mask id="mask17_4624_26968" style="mask-type:luminance" maskUnits="userSpaceOnUse" x="74" y="7" width="23" height="35">
<path d="M84.4117 8.60048C87.8059 9.91529 90.7224 12.2268 92.7778 15.2308C94.8332 18.2349 95.931 21.7908 95.9269 25.4307C95.9269 25.6463 95.9233 25.8619 95.9161 26.0775C95.7965 29.7198 94.5735 33.2399 92.409 36.1718L92.3433 36.2613C91.3025 37.6665 89.9686 38.8285 88.4341 39.667C86.9712 40.4735 85.3307 40.9033 83.6603 40.9176C82.6562 40.9183 81.659 40.7503 80.7106 40.4206C79.68 40.0574 78.7179 39.5235 77.8644 38.8411C76.9373 38.1061 76.221 37.1391 75.788 36.0381C75.3306 34.8456 75.1066 33.5763 75.1282 32.2992C75.1282 31.8874 75.1498 31.467 75.1875 31.04L74.2646 30.4234C74.187 31.046 74.1467 31.6728 74.1439 32.3003C74.1222 33.7038 74.3707 35.0983 74.8759 36.4079C75.3728 37.6685 76.1936 38.7756 77.2553 39.6174C78.1932 40.366 79.25 40.952 80.3818 41.351C81.4342 41.717 82.5406 41.9036 83.6549 41.9029C85.4887 41.8886 87.2901 41.4181 88.8966 40.5338C90.5572 39.6271 92.0007 38.3701 93.127 36.8499L93.196 36.7561C95.4784 33.6645 96.7683 29.9528 96.895 26.112C96.9029 25.8856 96.9069 25.66 96.9069 25.435C96.9135 21.5127 95.7055 17.6845 93.4489 14.4764C91.1922 11.2683 87.9976 8.83752 84.3039 7.51807C84.358 7.87523 84.3919 8.23517 84.4052 8.59617" fill="white"/>
</mask>
<g mask="url(#mask17_4624_26968)">
<path d="M77.209 -0.245399L62.4053 37.2681L93.8348 49.6709L108.638 12.1574L77.209 -0.245399Z" fill="url(#paint17_linear_4624_26968)"/>
</g>
<mask id="mask18_4624_26968" style="mask-type:luminance" maskUnits="userSpaceOnUse" x="58" y="6" width="23" height="38">
<path d="M64.6726 11.6915C62.4251 13.8102 60.7378 16.453 59.7616 19.3834C58.7854 22.3138 58.5508 25.4405 59.0787 28.4838C59.6066 31.5271 60.8807 34.3921 62.7868 36.8225C64.693 39.2529 67.1718 41.1729 70.0017 42.4109C72.2384 43.4007 74.6481 43.9407 77.0934 44C74.6677 43.8602 72.2931 43.2444 70.1052 42.1877C66.8577 40.6129 64.1473 38.1147 62.3137 35.0061C60.48 31.8975 59.6047 28.3168 59.7975 24.7128C59.9883 20.0542 61.9723 15.6497 65.3348 12.4198C68.6973 9.18988 73.178 7.3846 77.8405 7.38128C77.9792 7.38128 78.1187 7.38128 78.2588 7.38128C79.0979 7.40034 79.9347 7.47743 80.7632 7.61199C80.6554 7.25622 80.5314 6.90584 80.3913 6.563C79.6916 6.46918 78.9872 6.41376 78.2815 6.39697C78.1341 6.39697 77.9871 6.39697 77.8405 6.39697C72.9325 6.3949 68.214 8.29224 64.6737 11.6915" fill="white"/>
</mask>
<g mask="url(#mask18_4624_26968)">
<path d="M61.5384 -1.18766L45.709 38.9341L77.7707 51.5836L93.6001 11.4618L61.5384 -1.18766Z" fill="url(#paint18_linear_4624_26968)"/>
</g>
<path d="M76.574 10.228C76.2273 10.2333 75.8821 10.2756 75.5444 10.3542C74.8861 10.4892 74.2742 10.7931 73.7688 11.2361C73.3664 11.6026 73.0687 12.0695 72.9063 12.5891C72.802 12.9204 72.7493 13.2659 72.75 13.6133C72.7511 14.0217 72.8241 14.4268 72.9656 14.8099C73.0913 15.1634 73.2859 15.4884 73.5381 15.7662C73.6911 15.9326 73.8703 16.0728 74.0685 16.1813C74.3332 16.3249 74.6299 16.3991 74.931 16.3969C75.3365 16.3874 75.7339 16.2809 76.0899 16.0864C76.2847 15.9852 76.4714 15.8691 76.6484 15.7393C76.2649 15.7097 75.8879 15.624 75.5293 15.4848C75.3309 15.4106 75.1402 15.3171 74.9601 15.2056L74.9353 15.1894L74.9127 15.1711C74.6154 14.9188 74.3829 14.5991 74.2345 14.2386C74.0907 13.8887 74.0174 13.5139 74.0189 13.1357C74.0187 12.772 74.0837 12.4112 74.2108 12.0705C74.3395 11.7229 74.5371 11.405 74.7919 11.1358C75.0965 10.8189 75.4667 10.5724 75.8765 10.4135C76.1021 10.327 76.3363 10.2648 76.5751 10.228" fill="#B1E01B"/>
<path d="M78.8516 2.33691C80.0595 3.65475 80.9861 5.20499 81.5748 6.89296C82.0467 8.249 82.2872 9.6747 82.2864 11.1105C82.2861 11.5671 82.2624 12.0234 82.2152 12.4775C82.5986 11.3483 82.8031 10.1661 82.8211 8.97369C82.8274 8.1306 82.6922 7.29243 82.4212 6.49406C82.1808 5.80067 81.8322 5.1497 81.3883 4.56534C80.6911 3.66988 79.8303 2.9148 78.8516 2.34015" fill="#B1E01B"/>
<mask id="mask19_4624_26968" style="mask-type:luminance" maskUnits="userSpaceOnUse" x="74" y="30" width="4" height="4">
<path d="M75.185 31.0364C75.1472 31.4676 75.1256 31.8848 75.1256 32.2956C75.1259 32.6996 75.1464 33.1033 75.1871 33.5052L77.0339 32.2708L74.9736 30.894L75.185 31.0364Z" fill="white"/>
</mask>
<g mask="url(#mask19_4624_26968)">
<path d="M76.0713 29.8661L73.6709 32.1152L75.9377 34.5345L78.3381 32.2854L76.0713 29.8661Z" fill="url(#paint19_linear_4624_26968)"/>
</g>
<mask id="mask20_4624_26968" style="mask-type:luminance" maskUnits="userSpaceOnUse" x="64" y="30" width="10" height="7">
<path d="M64.8936 36.3443H70.8921L73.7113 34.4921C73.5898 33.7668 73.5296 33.0325 73.5313 32.2971C73.5344 31.6969 73.5704 31.0973 73.6391 30.501L64.8936 36.3443Z" fill="white"/>
</mask>
<g mask="url(#mask20_4624_26968)">
<path d="M69.5928 26.1006L61.9795 33.2305L69.015 40.743L76.6283 33.6132L69.5928 26.1006Z" fill="url(#paint20_linear_4624_26968)"/>
</g>
<mask id="mask21_4624_26968" style="mask-type:luminance" maskUnits="userSpaceOnUse" x="66" y="19" width="25" height="18">
<path d="M66.0196 22.1419C65.9722 24.6387 67.7446 24.9859 67.7446 24.9859C64.824 26.603 66.8368 29.9031 66.8368 29.9031C66.9296 29.7284 67.06 29.4977 67.2292 29.239C67.6286 28.5974 68.1472 28.0382 68.7569 27.5917C69.2928 27.2914 69.9063 27.1584 70.5184 27.2097C71.1305 27.261 71.7133 27.4943 72.1917 27.8795L84.8659 36.3501H90.9118L66.0552 19.7334C66.0487 20.2832 66.0379 21.1856 66.0196 22.1419Z" fill="white"/>
</mask>
<g mask="url(#mask21_4624_26968)">
<path d="M78.7204 6.71443L56.5312 27.4946L77.0108 49.3627L99.1999 28.5825L78.7204 6.71443Z" fill="url(#paint21_linear_4624_26968)"/>
</g>
<mask id="mask22_4624_26968" style="mask-type:luminance" maskUnits="userSpaceOnUse" x="78" y="19" width="12" height="11">
<path d="M78.7725 27.0714L81.7912 29.0917L83.6121 27.8745C85.5041 26.638 86.6049 27.287 87.0458 27.5867C87.4731 27.8874 87.8525 28.2509 88.1713 28.6648C88.4738 29.0518 88.7418 29.4644 88.9724 29.8981C88.9874 29.8755 89.0004 29.8529 89.0155 29.8313C89.2785 29.3591 90.7458 26.4612 88.0689 24.9799C88.0689 24.9799 89.8359 24.6327 89.7939 22.1358C89.7756 21.1774 89.7637 20.2729 89.7572 19.7241L78.7725 27.0714Z" fill="white"/>
</mask>
<g mask="url(#mask22_4624_26968)">
<path d="M85.1564 13.7468L73.6982 24.4829L84.3768 35.8796L95.8349 25.1435L85.1564 13.7468Z" fill="url(#paint22_linear_4624_26968)"/>
</g>
<path d="M4.47909 38.3457C4.37744 38.345 4.27671 38.3264 4.18154 38.2907C4.07667 38.2497 3.98937 38.1735 3.93465 38.0751C3.89902 38.1521 3.84541 38.2193 3.77833 38.2713C3.72986 38.3137 3.66899 38.3395 3.60476 38.3446C3.53543 38.3429 3.4666 38.3324 3.39992 38.3133C3.32014 38.2928 3.23712 38.2659 3.15303 38.2357C3.06894 38.2055 2.98593 38.1699 2.90615 38.1279C2.82637 38.0858 2.75845 38.0557 2.70562 38.0201V38.267C2.70562 38.336 2.70562 38.4168 2.70562 38.5106C2.70562 38.6044 2.70562 38.7025 2.71425 38.8082C2.72287 38.9138 2.72395 39.0173 2.72934 39.1187L2.28193 39.3429L2.21401 39.3009C2.20826 39.1715 2.20466 39.0364 2.20323 38.8955C2.20179 38.7546 2.20179 38.6195 2.20323 38.4901C2.20323 38.3608 2.20323 38.2447 2.20323 38.1419V37.908C2.20323 37.8493 2.2112 37.7909 2.22695 37.7344C2.24254 37.6774 2.2697 37.6242 2.30672 37.5781C2.3477 37.5278 2.39781 37.4857 2.45442 37.4541C2.52463 37.4155 2.6014 37.3903 2.68082 37.3797L2.92124 37.0077C2.96756 36.9285 3.02451 36.8559 3.0905 36.7921C3.14727 36.7389 3.21202 36.6949 3.2824 36.6617C3.35678 36.6276 3.43551 36.6041 3.51635 36.5916C3.61566 36.5765 3.71571 36.5668 3.81606 36.5625L3.91309 36.6466C3.93034 36.7185 3.94723 36.8 3.96376 36.8913C3.98101 36.9808 3.99718 37.067 4.01443 37.149C4.03168 37.2309 4.04785 37.3032 4.06295 37.3646C4.07137 37.4077 4.08475 37.4497 4.10284 37.4897C4.13889 37.5237 4.18194 37.5494 4.22897 37.5651C4.31129 37.5885 4.39686 37.5983 4.48233 37.5942L4.47909 38.3457ZM3.53684 37.205C3.47215 37.2104 3.41932 37.2169 3.37835 37.2245C3.33994 37.231 3.30326 37.2453 3.27054 37.2665C3.23384 37.2916 3.20113 37.3222 3.17352 37.3571C3.13169 37.4099 3.09282 37.4649 3.05708 37.522C3.15219 37.5683 3.25193 37.6045 3.35464 37.6298C3.44714 37.6514 3.54124 37.6655 3.63602 37.6719C3.6301 37.5857 3.61675 37.5002 3.59613 37.4163C3.57529 37.3308 3.55624 37.2611 3.53899 37.2072" fill="#999999"/>
<path d="M4.47928 38.3473C4.42538 38.3473 4.39088 38.3106 4.37147 38.2395C4.35471 38.1546 4.34676 38.0683 4.34776 37.9818C4.34666 37.8939 4.3546 37.8061 4.37147 37.7198C4.38657 37.6465 4.42214 37.612 4.47928 37.612H4.9019H5.16388C5.24006 37.612 5.30762 37.6098 5.36656 37.6055C5.41961 37.6032 5.47251 37.5982 5.52504 37.5905C5.56872 37.5839 5.61194 37.5745 5.65441 37.5624C5.6404 37.5031 5.62315 37.4428 5.60159 37.3813C5.58002 37.3198 5.55738 37.2573 5.53367 37.1959C5.50995 37.1344 5.48407 37.0751 5.4582 37.0212C5.43232 36.9673 5.40861 36.9134 5.38812 36.8757L5.85709 36.5522L5.93687 36.5857C5.9894 36.7172 6.03123 36.8528 6.06193 36.991C6.09168 37.1285 6.1065 37.2687 6.10614 37.4093C6.1062 37.5022 6.09571 37.5948 6.07487 37.6853C6.05542 37.7724 6.02725 37.8573 5.99078 37.9387C5.95866 38.0108 5.91813 38.0788 5.87003 38.1414C5.83361 38.1914 5.78785 38.2338 5.73527 38.2664C5.46574 38.3474 5.18349 38.3773 4.90298 38.3548L4.47928 38.3473ZM4.6604 38.6847L5.09165 38.9553L5.28139 38.6847L5.74605 38.9758L5.47545 39.4232L5.04421 39.1483L4.85446 39.4232L4.3898 39.1321L4.6604 38.6847Z" fill="#999999"/>
<path d="M7.31018 38.3362C7.26777 38.3306 7.22681 38.3171 7.18943 38.2963C7.17656 38.4508 7.1402 38.6024 7.08162 38.7459C7.03569 38.8603 6.97634 38.9689 6.90481 39.0693C6.85289 39.1422 6.78955 39.2063 6.71722 39.2591C6.67722 39.2921 6.62927 39.314 6.57815 39.3227C6.55983 39.3238 6.54148 39.3238 6.52316 39.3227C6.50052 39.3227 6.46495 39.313 6.41535 39.3033L6.21698 39.2634L5.89355 39.1998V38.9842C6.09047 38.8756 6.27517 38.7462 6.44446 38.5982C6.5693 38.4917 6.67566 38.3653 6.75927 38.2241C6.71933 38.0801 6.66999 37.939 6.61157 37.8015C6.54401 37.6383 6.47213 37.4762 6.39595 37.3153L6.88972 37.0112L6.9695 37.0447C7.0119 37.1719 7.04424 37.2732 7.06653 37.3487C7.08198 37.41 7.10827 37.468 7.14415 37.5201C7.1731 37.5575 7.21434 37.5835 7.26058 37.5934C7.3316 37.6071 7.40391 37.6129 7.4762 37.6107V38.3502C7.42031 38.3507 7.36447 38.3471 7.3091 38.3394" fill="#999999"/>
<path d="M7.47831 38.3471C7.4244 38.3471 7.3899 38.3104 7.3705 38.2393C7.35374 38.1544 7.34579 38.0681 7.34678 37.9816C7.34569 37.8937 7.35364 37.8059 7.3705 37.7196C7.38559 37.6463 7.42117 37.6118 7.47831 37.6118H8.07342V38.3514L7.47831 38.3471Z" fill="#999999"/>
<path d="M8.07303 38.3471C8.01912 38.3471 7.98463 38.3104 7.96522 38.2393C7.94847 38.1544 7.94052 38.0681 7.9415 37.9816C7.94043 37.8937 7.94837 37.8059 7.96522 37.7196C7.98031 37.6463 8.01589 37.6118 8.07303 37.6118H8.66922V38.3514L8.07303 38.3471Z" fill="#999999"/>
<path d="M8.66971 38.3459C8.61581 38.3459 8.58131 38.3092 8.5619 38.2381C8.54516 38.1532 8.5372 38.0669 8.53818 37.9804C8.53711 37.8925 8.54506 37.8047 8.5619 37.7184C8.577 37.6451 8.61257 37.6106 8.66971 37.6106H9.07508C9.30745 37.6172 9.53986 37.5988 9.7683 37.5556C9.68604 37.3805 9.56817 37.2245 9.42222 37.0975C9.21785 36.91 9.0018 36.7357 8.77537 36.5757L8.85515 36.153C8.86373 36.1047 8.87489 36.0568 8.88857 36.0097C8.89853 35.9754 8.91583 35.9438 8.93924 35.9169C8.96349 35.8903 8.99382 35.87 9.02764 35.8576C9.07449 35.8406 9.12238 35.8265 9.17103 35.8156L10.4087 35.5493L10.4594 35.6129L10.3753 36.152L9.38233 36.3417C9.52505 36.4401 9.65856 36.5513 9.78123 36.6738C9.87186 36.7642 9.95181 36.8648 10.0195 36.9735C10.0704 37.0557 10.1096 37.1446 10.1359 37.2376C10.1559 37.3122 10.1664 37.389 10.1672 37.4662C10.1668 37.5482 10.1556 37.6297 10.1338 37.7087C10.1126 37.7887 10.0845 37.8666 10.0497 37.9416C10.0183 38.0091 9.97926 38.0728 9.93324 38.1314C9.89913 38.1765 9.85528 38.2133 9.80495 38.2392C9.53419 38.3289 9.24866 38.3655 8.96403 38.347L8.66971 38.3459Z" fill="#999999"/>
<path d="M13.1883 38.0072C13.1911 38.1559 13.1778 38.3045 13.1484 38.4503C13.1331 38.5297 13.1111 38.6076 13.0826 38.6832C13.0574 38.7257 13.0237 38.7624 12.9834 38.791C12.9097 38.8489 12.8298 38.8984 12.7452 38.9387C12.6268 38.9954 12.5029 39.0399 12.3754 39.0713C12.2146 39.1113 12.0494 39.1305 11.8838 39.1285C11.7238 39.1337 11.5642 39.1099 11.4126 39.0584C11.3065 39.0213 11.2113 38.9583 11.1356 38.8751C11.0713 38.7998 11.0265 38.7098 11.0051 38.6131C10.9824 38.512 10.9712 38.4085 10.9717 38.3048C10.9717 38.2509 10.9753 38.1722 10.9825 38.0687C10.9897 37.9652 10.9976 37.8595 11.0062 37.7517C11.0177 37.6281 11.0303 37.4959 11.0439 37.355L11.4579 37.3755C11.4522 37.5056 11.4464 37.6281 11.4407 37.7431C11.4353 37.8412 11.4299 37.9426 11.4256 38.045C11.4213 38.1474 11.418 38.2304 11.4148 38.2919C11.481 38.3313 11.5542 38.3577 11.6304 38.3695C11.7136 38.382 11.7975 38.3882 11.8816 38.3878C11.9535 38.3878 12.0304 38.3842 12.1123 38.377C12.1921 38.3695 12.2708 38.3598 12.3463 38.3447C12.4217 38.3296 12.4951 38.3134 12.5619 38.294C12.6247 38.2763 12.686 38.2536 12.7452 38.2261C12.7279 38.1183 12.7096 38.0105 12.688 37.9027C12.6665 37.7949 12.6438 37.687 12.6201 37.5943C12.5964 37.5016 12.5716 37.4067 12.5457 37.3216C12.5198 37.2364 12.4961 37.162 12.4735 37.0973L12.9554 36.7976L13.0309 36.8149C13.0783 36.984 13.1144 37.1562 13.1387 37.3302C13.1691 37.5557 13.1831 37.783 13.1807 38.0105M11.5754 36.8742L11.846 36.4268L12.3355 36.7394L12.0401 37.1706L11.5754 36.8742Z" fill="#999999"/>
<path d="M13.6743 35.4527C13.6 35.4526 13.5257 35.4468 13.4522 35.4354C13.389 35.4266 13.3264 35.414 13.2647 35.3977L13.1461 35.6424H13.104L12.8291 35.4268C12.888 35.3111 12.9344 35.2173 12.9682 35.1454C12.9941 35.0883 13.0229 35.0325 13.0544 34.9783C13.0713 34.9479 13.0936 34.9209 13.1202 34.8985C13.14 34.8843 13.1637 34.8767 13.1881 34.877C13.2558 34.8805 13.323 34.891 13.3886 34.9082C13.5172 34.9326 13.6481 34.943 13.7789 34.9395C13.8755 34.9386 13.972 34.9321 14.0678 34.9201C14.178 34.907 14.2864 34.882 14.3913 34.8457L14.4128 34.8759L14.305 35.3492C14.1972 35.3889 14.085 35.4154 13.9708 35.4279C13.8713 35.4393 13.7713 35.4454 13.6711 35.4462M13.5439 38.2978L13.4803 36.9038C13.4745 36.819 13.4688 36.7428 13.463 36.6752C13.4578 36.6115 13.4484 36.5481 13.435 36.4855C13.4227 36.4273 13.4065 36.3701 13.3865 36.3141C13.3649 36.2556 13.3393 36.1987 13.3099 36.1437L13.753 35.6996C13.8025 35.7758 13.845 35.8562 13.8802 35.94C13.9111 36.0151 13.9346 36.0931 13.9503 36.1728C13.966 36.2543 13.9758 36.3368 13.9794 36.4197C13.9837 36.5053 13.9859 36.5991 13.9859 36.7011V38.1706L13.6269 38.3398L13.5439 38.2978Z" fill="#999999"/>
<path d="M15.2391 38.3362C15.1967 38.3306 15.1557 38.3171 15.1183 38.2963C15.1055 38.4508 15.0691 38.6024 15.0105 38.7459C14.9646 38.8603 14.9053 38.9689 14.8337 39.0693C14.7818 39.1422 14.7185 39.2063 14.6461 39.2591C14.6061 39.2921 14.5582 39.314 14.5071 39.3227H14.4499C14.4255 39.3227 14.386 39.3155 14.3313 39.3011L14.1071 39.2548L13.7373 39.1793V38.9637C13.955 38.8623 14.1599 38.7352 14.3475 38.5853C14.4793 38.4838 14.594 38.3619 14.6871 38.2241C14.6472 38.0801 14.5978 37.939 14.5394 37.8015C14.4718 37.6383 14.4 37.4762 14.3238 37.3153L14.8176 37.0112L14.8973 37.0447C14.9397 37.1719 14.9721 37.2732 14.9944 37.3487C15.0098 37.41 15.0361 37.468 15.072 37.5201C15.1009 37.5575 15.1422 37.5835 15.1884 37.5934C15.2594 37.6071 15.3318 37.6129 15.404 37.6107V38.3502C15.3482 38.3507 15.2923 38.3471 15.2369 38.3394" fill="#999999"/>
<path d="M15.407 38.3471C15.3531 38.3471 15.3186 38.3104 15.2992 38.2393C15.2825 38.1544 15.2745 38.0681 15.2755 37.9816C15.2744 37.8937 15.2824 37.8059 15.2992 37.7196C15.3143 37.6463 15.3499 37.6118 15.407 37.6118H16.0021V38.3514L15.407 38.3471Z" fill="#999999"/>
<path d="M16.0017 38.3471C15.9478 38.3471 15.9133 38.3104 15.8939 38.2393C15.8772 38.1544 15.8692 38.0681 15.8702 37.9816C15.8691 37.8937 15.8771 37.8059 15.8939 37.7196C15.909 37.6463 15.9435 37.6118 16.0017 37.6118H16.5979V38.3514L16.0017 38.3471Z" fill="#999999"/>
<path d="M16.5984 38.346C16.5445 38.346 16.51 38.3093 16.4906 38.2381C16.4739 38.1533 16.4659 38.067 16.4669 37.9805C16.4658 37.8926 16.4738 37.8048 16.4906 37.7185C16.5057 37.6452 16.5402 37.6107 16.5984 37.6107H17.0545C17.2456 37.6107 17.3955 37.6057 17.504 37.5956C17.5943 37.5886 17.684 37.5752 17.7725 37.5557C17.7725 37.5158 17.7725 37.4792 17.7725 37.4479C17.7724 37.4118 17.7695 37.3758 17.7638 37.3401C17.686 37.3632 17.6063 37.3794 17.5256 37.3886C17.4182 37.3999 17.3102 37.4049 17.2022 37.4037C17.0795 37.4111 16.9585 37.3727 16.8626 37.2959C16.8237 37.2606 16.7932 37.2172 16.7731 37.1687C16.7529 37.1203 16.7437 37.068 16.7461 37.0156C16.7478 36.9394 16.7572 36.8635 16.7741 36.7892C16.7925 36.7008 16.814 36.6081 16.8399 36.51C16.8658 36.4119 16.8927 36.317 16.924 36.221C16.9553 36.1251 16.9833 36.0399 17.0081 35.9634L17.1008 35.8955C17.2864 35.888 17.4705 35.9312 17.6334 36.0205C17.7668 36.0993 17.878 36.2106 17.9568 36.3439C18.0382 36.4856 18.0933 36.6408 18.1196 36.8021C18.1491 36.9716 18.1639 37.1433 18.1638 37.3153C18.1646 37.5205 18.1235 37.7238 18.0431 37.9126C18.0118 37.9858 17.9712 38.0546 17.9223 38.1174C17.8855 38.1665 17.8398 38.2082 17.7876 38.2403C17.699 38.2834 17.6032 38.3097 17.5051 38.3179C17.3284 38.3385 17.1504 38.3475 16.9725 38.3449L16.5984 38.346ZM16.9326 34.9629L17.3639 35.2378L17.5536 34.9629L18.0183 35.254L17.7477 35.7014L17.3164 35.4308L17.1267 35.7014L16.662 35.4103L16.9326 34.9629ZM17.3757 36.8258C17.4232 36.8258 17.4695 36.8237 17.5148 36.8194L17.6453 36.8043C17.6053 36.7124 17.5422 36.6325 17.462 36.5725C17.3713 36.512 17.2648 36.4797 17.1558 36.4798C17.1385 36.5272 17.1224 36.58 17.1051 36.6383C17.0879 36.6965 17.0749 36.7461 17.0674 36.7881C17.1063 36.803 17.1468 36.8132 17.1881 36.8183C17.2504 36.8249 17.3131 36.8278 17.3757 36.8269" fill="#999999"/>
<path d="M21.0158 37.0835L20.8261 36.9649C20.7885 36.936 20.7451 36.9158 20.6989 36.9056C20.651 36.9074 20.6045 36.9219 20.5641 36.9476C20.5127 36.9775 20.4653 37.0138 20.4229 37.0554C20.3739 37.1051 20.3302 37.1596 20.2924 37.2182C20.2522 37.279 20.2189 37.3441 20.1932 37.4123C20.218 37.4265 20.2449 37.4363 20.273 37.4414C20.3171 37.4512 20.3618 37.4584 20.4067 37.463L20.576 37.4802L20.7636 37.4974C20.8491 37.502 20.9336 37.5184 21.0148 37.546C21.0728 37.5668 21.1234 37.6043 21.1603 37.6538C21.1956 37.7024 21.2183 37.7591 21.2261 37.8187C21.2367 37.8955 21.2418 37.973 21.2412 38.0505C21.2407 38.1133 21.2356 38.176 21.2261 38.2381C21.2164 38.3039 21.2045 38.3675 21.1926 38.4279C21.1808 38.4882 21.1668 38.5421 21.1549 38.5885C21.1471 38.6209 21.1367 38.6527 21.1236 38.6834C21.0982 38.7257 21.0645 38.7623 21.0244 38.7912C20.9489 38.8498 20.8668 38.8994 20.7797 38.9389C20.6564 38.9955 20.5279 39.0399 20.3959 39.0715C20.2264 39.1116 20.0526 39.1308 19.8784 39.1286C19.7103 39.134 19.5425 39.1103 19.3825 39.0585C19.2727 39.0219 19.1735 38.959 19.0936 38.8753C19.0271 38.8011 18.9814 38.7108 18.961 38.6133C18.9397 38.5119 18.9292 38.4085 18.9297 38.305C18.9297 38.251 18.9333 38.1723 18.9405 38.0688C18.9477 37.9653 18.9556 37.8597 18.9642 37.7519C18.9757 37.6283 18.9883 37.496 19.0019 37.3552L19.4159 37.3767C19.4102 37.5061 19.4044 37.6286 19.3987 37.7443C19.3933 37.8424 19.3879 37.9438 19.3836 38.0462C19.3793 38.1486 19.376 38.2316 19.3728 38.2931C19.439 38.3326 19.5122 38.359 19.5884 38.3707C19.6855 38.3848 19.7836 38.3913 19.8817 38.3901C20.0473 38.3906 20.2126 38.3758 20.3754 38.3459C20.5245 38.3185 20.6712 38.2796 20.8142 38.2295C20.8142 38.2155 20.8142 38.2036 20.8078 38.1939C20.8013 38.1842 20.8078 38.1723 20.8013 38.1583L20.6072 38.1389L20.3452 38.1206C20.1959 38.1206 20.0498 38.0772 19.9248 37.9955C19.8786 37.9518 19.843 37.8981 19.8208 37.8384C19.7986 37.7788 19.7902 37.7149 19.7965 37.6516C19.7963 37.4779 19.83 37.3058 19.8957 37.1449C19.957 36.9906 20.0394 36.8455 20.1404 36.7137C20.2282 36.5972 20.3346 36.4959 20.4552 36.414C20.5467 36.3483 20.6554 36.3108 20.7679 36.3062C20.8082 36.3088 20.8474 36.321 20.8821 36.3417C20.9319 36.3687 20.9798 36.3989 21.0255 36.4323C21.0762 36.4689 21.1269 36.5078 21.1775 36.5487C21.2282 36.5897 21.2746 36.6285 21.3166 36.6652L21.0158 37.0835Z" fill="#999999"/>
<path d="M22.0116 38.3042C21.9208 38.2791 21.8394 38.2277 21.7776 38.1566C21.7103 38.0725 21.6644 37.9733 21.6439 37.8676C21.6127 37.7126 21.5986 37.5546 21.6019 37.3965V36.534C21.6019 36.4553 21.6019 36.382 21.5932 36.3184C21.5877 36.2546 21.5783 36.1913 21.5652 36.1287C21.5521 36.0671 21.5344 36.0065 21.5124 35.9475C21.4898 35.8871 21.4628 35.8225 21.4326 35.7556L21.8757 35.333C21.9186 35.4174 21.9568 35.5041 21.99 35.5928C22.0175 35.6678 22.0388 35.745 22.0536 35.8235C22.0681 35.9015 22.0775 35.9804 22.0816 36.0596C22.0816 36.1416 22.0881 36.2332 22.0881 36.3346V37.5302C22.1041 37.5519 22.1252 37.5693 22.1496 37.5809C22.1736 37.5917 22.199 37.5994 22.225 37.6035C22.25 37.6077 22.2752 37.6106 22.3005 37.6121H22.3619V38.3517C22.2437 38.3542 22.1258 38.3401 22.0116 38.3096" fill="#999999"/>
<path d="M23.1437 38.164C23.0648 38.2234 22.9762 38.2687 22.8817 38.2977C22.7749 38.3309 22.6637 38.3473 22.5518 38.3462H22.3621C22.3093 38.3462 22.2737 38.3096 22.2543 38.2384C22.2375 38.1536 22.2296 38.0672 22.2306 37.9807C22.2295 37.8928 22.2374 37.8051 22.2543 37.7188C22.2694 37.6455 22.3039 37.611 22.3621 37.611H22.5314C22.5496 37.6092 22.5681 37.6092 22.5863 37.611C22.5804 37.5851 22.5768 37.5588 22.5756 37.5323C22.5756 37.5053 22.5756 37.4805 22.5756 37.4589C22.5737 37.3493 22.5977 37.2407 22.6456 37.142C22.6889 37.0533 22.7498 36.9744 22.8246 36.9102L22.6726 36.8552L22.6435 36.7711L22.8084 36.2773L23.5685 36.5523C23.7233 36.6055 23.8731 36.6726 24.0159 36.7528C24.1206 36.8107 24.2164 36.8833 24.3005 36.9684C24.3676 37.0369 24.4194 37.1189 24.4525 37.2088C24.4824 37.2959 24.4974 37.3874 24.4967 37.4794C24.496 37.6331 24.4675 37.7854 24.4126 37.929C24.3571 38.0756 24.2847 38.2152 24.197 38.3451L23.1437 38.164ZM23.2192 37.0784C23.1813 37.0818 23.1445 37.0932 23.1114 37.1118C23.077 37.1312 23.0451 37.1547 23.0165 37.1819C22.9893 37.2073 22.9657 37.2363 22.9464 37.2681C22.9302 37.2945 22.9182 37.3232 22.9108 37.3533C22.9189 37.4127 22.944 37.4685 22.9831 37.5139C23.0212 37.5645 23.0722 37.604 23.1308 37.6282C23.1918 37.6197 23.2495 37.5951 23.2979 37.557C23.3538 37.5173 23.396 37.4612 23.4186 37.3964C23.4157 37.3327 23.3976 37.2706 23.3658 37.2153C23.3366 37.153 23.2845 37.1043 23.2203 37.0795M24.1075 37.667C24.1092 37.6199 24.1013 37.573 24.0842 37.5291C24.0672 37.4851 24.0414 37.4451 24.0084 37.4115C23.927 37.3356 23.8318 37.276 23.728 37.2358C23.728 37.2552 23.728 37.2746 23.7345 37.2929C23.741 37.3112 23.7345 37.3317 23.7345 37.3544C23.7336 37.4117 23.7234 37.4685 23.7043 37.5225C23.6852 37.5809 23.6584 37.6363 23.6245 37.6875L24.0935 37.7759C24.1018 37.7406 24.1062 37.7044 24.1065 37.6681" fill="#999999"/>
<path d="M25.7842 38.2418C25.6903 38.2453 25.5967 38.231 25.5082 38.1997C25.4426 38.1747 25.3864 38.1299 25.3475 38.0714C25.3065 38.0062 25.2811 37.9325 25.2731 37.8558C25.2611 37.7593 25.2553 37.662 25.2559 37.5647C25.2559 37.467 25.2657 37.3695 25.285 37.2736C25.2972 37.1994 25.3186 37.127 25.3486 37.058C25.4293 36.9886 25.5139 36.9238 25.602 36.864C25.7148 36.7849 25.8514 36.6947 26.0116 36.5934L25.961 36.2807L26.362 36.0737L26.4343 36.1201L26.6283 37.5216C26.6604 37.5467 26.697 37.5654 26.7361 37.5766C26.8243 37.6 26.9156 37.6098 27.0067 37.6057V38.3453C26.9242 38.3456 26.8417 38.3406 26.7598 38.3302C26.69 38.3216 26.6218 38.303 26.5572 38.2752C26.496 38.248 26.4407 38.2092 26.3944 38.1609C26.342 38.105 26.3004 38.04 26.2715 37.969C26.2575 38.0111 26.2445 38.0456 26.2337 38.0768L26.2122 38.1254C26.1955 38.1532 26.1701 38.1748 26.1399 38.1868C26.1033 38.203 26.065 38.2149 26.0257 38.2224C25.983 38.231 25.9397 38.2367 25.8963 38.2396C25.8521 38.2396 25.8144 38.2396 25.7799 38.2396M25.7583 37.5637H25.9372C26.0145 37.5617 26.0915 37.5552 26.168 37.5443L26.0882 37.058C26.0343 37.0889 25.9793 37.122 25.9232 37.1572C25.8672 37.1924 25.8151 37.2284 25.7669 37.265L25.6408 37.3556C25.6133 37.3735 25.5889 37.3957 25.5685 37.4214C25.5685 37.486 25.5815 37.5292 25.6084 37.5443C25.6555 37.5649 25.707 37.5734 25.7583 37.569" fill="#999999"/>
<path d="M26.9317 38.6838L27.363 38.9544L27.5527 38.6838L28.0174 38.9748L27.7468 39.4223L27.3155 39.1473L27.1258 39.4223L26.6611 39.1312L26.9317 38.6838ZM27.004 38.3463C26.9511 38.3463 26.9156 38.3097 26.8962 38.2385C26.8795 38.1536 26.8716 38.0673 26.8724 37.9808C26.8714 37.8929 26.8794 37.8052 26.8962 37.7189C26.9113 37.6455 26.9468 37.611 27.004 37.611H27.266L27.4686 37.6046C27.5279 37.6046 27.5764 37.597 27.6271 37.5895C27.6708 37.583 27.714 37.5736 27.7565 37.5615C27.7425 37.5022 27.7252 37.4418 27.7037 37.3803C27.6821 37.3189 27.6595 37.2563 27.6368 37.1949C27.6142 37.1334 27.5872 37.0742 27.5603 37.0203L27.4902 36.8747L27.9592 36.5513L28.04 36.5858C28.0923 36.7173 28.1338 36.8529 28.164 36.9911C28.1937 37.1286 28.2085 37.2688 28.2082 37.4094C28.2082 37.5027 28.1978 37.5956 28.1769 37.6865C28.157 37.7736 28.1285 37.8584 28.0918 37.9399C28.0598 38.0121 28.0193 38.0801 27.971 38.1426C27.9346 38.1926 27.8889 38.2351 27.8363 38.2676C27.5667 38.3486 27.2845 38.3785 27.004 38.356" fill="#999999"/>
<path d="M28.6987 35.4527C28.6244 35.4526 28.5501 35.4468 28.4767 35.4354C28.4134 35.4266 28.3508 35.414 28.2891 35.3977L28.1705 35.6424H28.1284L27.8535 35.4268C27.9125 35.3111 27.9588 35.2173 27.9926 35.1454C28.0185 35.0883 28.0473 35.0325 28.0788 34.9783C28.0957 34.9479 28.118 34.9209 28.1446 34.8985C28.1644 34.8843 28.1882 34.8767 28.2125 34.877C28.2802 34.8805 28.3474 34.891 28.413 34.9082C28.5416 34.9326 28.6725 34.943 28.8033 34.9395C28.8999 34.9386 28.9964 34.9321 29.0923 34.9201C29.2024 34.907 29.3109 34.882 29.4157 34.8457L29.4372 34.8759L29.3294 35.3492C29.2217 35.3889 29.1094 35.4154 28.9952 35.4279C28.8957 35.4393 28.7957 35.4454 28.6955 35.4462M28.5683 38.2978L28.5047 36.9038C28.4989 36.819 28.4932 36.7428 28.4874 36.6752C28.4822 36.6115 28.4728 36.5481 28.4594 36.4855C28.4471 36.4273 28.4309 36.3701 28.4109 36.3141C28.3893 36.2556 28.3637 36.1987 28.3343 36.1437L28.7774 35.6996C28.8269 35.7758 28.8695 35.8562 28.9047 35.94C28.9355 36.0151 28.959 36.0931 28.9747 36.1728C28.9904 36.2543 29.0002 36.3368 29.0038 36.4197C29.0082 36.5053 29.0103 36.5991 29.0103 36.7011V38.1706L28.6513 38.3398L28.5683 38.2978Z" fill="#999999"/>
<path d="M31.1057 38.3466C30.962 38.3466 30.7988 38.3437 30.6163 38.338C30.4337 38.3322 30.2523 38.3211 30.0719 38.3046L29.7549 37.6502L29.7969 37.5661L29.9996 37.5812L30.1807 37.5962L30.5149 37.3138C30.5438 37.2879 30.5698 37.2589 30.5926 37.2275C30.6155 37.19 30.6264 37.1464 30.6238 37.1025C30.6238 37.0917 30.6238 37.0647 30.6238 37.0227C30.6238 36.9807 30.6238 36.9311 30.6174 36.8728C30.6109 36.8146 30.6174 36.7564 30.6109 36.696C30.6044 36.6357 30.6109 36.5818 30.6044 36.5332C30.599 36.4373 30.5936 36.3564 30.5872 36.2885C30.5824 36.2263 30.5741 36.1644 30.5624 36.1031C30.5511 36.0465 30.5363 35.9907 30.5182 35.936C30.4998 35.881 30.4783 35.8195 30.4524 35.7527L30.8955 35.3301C30.9385 35.4144 30.9767 35.5012 31.0098 35.5899C31.0373 35.6649 31.0586 35.7421 31.0734 35.8206C31.0875 35.8986 31.0966 35.9775 31.1004 36.0567C31.1047 36.1387 31.1068 36.2303 31.1068 36.3316C31.1068 36.4668 31.1047 36.5746 31.1004 36.6551C31.0974 36.7231 31.0895 36.7909 31.0766 36.8578C31.1866 36.7679 31.2761 36.696 31.3451 36.6421C31.4141 36.5882 31.4701 36.5483 31.5143 36.5192C31.548 36.4967 31.5842 36.4782 31.6221 36.4642C31.6439 36.4563 31.6669 36.4519 31.6901 36.4513C31.7768 36.4527 31.8616 36.4781 31.9348 36.5246C32.0204 36.5774 32.0957 36.6453 32.1569 36.7251C32.225 36.8134 32.2792 36.9115 32.3175 37.0162C32.3838 37.1945 32.3961 37.3883 32.3531 37.5736C32.3965 37.5924 32.4428 37.6034 32.49 37.606C32.5454 37.6103 32.6108 37.6124 32.6862 37.6124H32.7369V38.352H32.6862C32.6404 38.3515 32.5946 38.3479 32.5493 38.3412C32.5 38.3341 32.4518 38.3207 32.4059 38.3013C32.3565 38.2799 32.3105 38.2516 32.269 38.2172C32.2209 38.1772 32.1807 38.1286 32.1504 38.0738C32.1264 38.1089 32.099 38.1414 32.0685 38.1709C32.041 38.1977 32.0088 38.2192 31.9736 38.2345C31.8664 38.2792 31.7536 38.3089 31.6383 38.3229C31.4638 38.3446 31.288 38.3544 31.1122 38.352M31.5046 37.0852C31.4826 37.0873 31.4611 37.0931 31.441 37.1025C31.3958 37.1234 31.3525 37.1483 31.3117 37.1769C31.2542 37.215 31.1772 37.2685 31.0809 37.3375C30.9846 37.4065 30.8621 37.4985 30.7133 37.6135H31.3979H31.5984C31.6534 37.6135 31.7009 37.6135 31.7397 37.607C31.7737 37.6049 31.8075 37.6006 31.841 37.5941C31.869 37.5887 31.8992 37.5812 31.9294 37.5725C31.9116 37.5087 31.8847 37.4477 31.8496 37.3914C31.8153 37.3355 31.7756 37.2832 31.731 37.2351C31.6933 37.194 31.6505 37.1578 31.6038 37.1273C31.574 37.1055 31.5391 37.0918 31.5025 37.0874M31.2998 35.9726L31.5704 35.5252L32.0599 35.8379L31.7645 36.2691L31.2998 35.9726Z" fill="#999999"/>
<path d="M32.7332 38.3471C32.6804 38.3471 32.6448 38.3104 32.6254 38.2393C32.6086 38.1544 32.6007 38.0681 32.6017 37.9816C32.6006 37.8937 32.6085 37.8059 32.6254 37.7196C32.6405 37.6463 32.676 37.6118 32.7332 37.6118H33.3294V38.3514L32.7332 38.3471Z" fill="#999999"/>
<path d="M33.3279 38.3471C33.2751 38.3471 33.2395 38.3104 33.2201 38.2393C33.2034 38.1544 33.1954 38.0681 33.1964 37.9816C33.1953 37.8937 33.2033 37.8059 33.2201 37.7196C33.2352 37.6463 33.2708 37.6118 33.3279 37.6118H33.923V38.3514L33.3279 38.3471Z" fill="#999999"/>
<path d="M35.2115 38.3462C35.0979 38.3507 34.9844 38.3335 34.8773 38.2955C34.7941 38.2591 34.7203 38.2041 34.6616 38.1348C34.6348 38.1767 34.6005 38.2133 34.5603 38.2427C34.4943 38.283 34.421 38.3101 34.3447 38.3224C34.2613 38.3395 34.1764 38.3481 34.0913 38.3483H33.9178C33.8646 38.3483 33.8286 38.3124 33.81 38.2405C33.7932 38.1557 33.7852 38.0693 33.7862 37.9828C33.7851 37.8949 33.7931 37.8071 33.81 37.7209C33.825 37.6476 33.8595 37.6131 33.9178 37.6131H34.1463C34.1267 37.5532 34.1165 37.4906 34.1161 37.4276C34.1168 37.3796 34.1211 37.3316 34.1291 37.2842C34.1433 37.2146 34.1669 37.1471 34.1991 37.0837C34.2502 36.9811 34.3074 36.8818 34.3706 36.7862C34.4467 36.6676 34.5546 36.5213 34.694 36.3474L34.7953 36.3258C34.9125 36.3817 35.0259 36.4451 35.1349 36.5155C35.2137 36.5651 35.2861 36.6241 35.3506 36.6913C35.3993 36.7434 35.4361 36.8056 35.4584 36.8735C35.4793 36.9434 35.4895 37.0161 35.4885 37.0891C35.4872 37.1719 35.4752 37.2541 35.453 37.3338C35.4237 37.4345 35.3786 37.5298 35.3193 37.6163H35.6578V38.3559L35.2115 38.3462ZM34.3662 35.901L34.6369 35.4536L35.1263 35.7663L34.8309 36.1975L34.3662 35.901ZM34.514 37.2907C34.5288 37.3698 34.5736 37.44 34.639 37.4869C34.7077 37.5431 34.7874 37.5843 34.873 37.6077C34.9182 37.5652 34.9567 37.5161 34.9872 37.4621C35.0089 37.4213 35.0204 37.3758 35.0207 37.3295C35.0207 37.3043 35.0171 37.2793 35.0099 37.2551C35.0004 37.2272 34.9854 37.2015 34.9657 37.1797C34.9369 37.1477 34.9043 37.1195 34.8686 37.0956C34.8154 37.0596 34.7604 37.0265 34.7037 36.9964C34.6555 37.0553 34.6146 37.1089 34.5808 37.157C34.5503 37.1979 34.5273 37.2439 34.5129 37.2929" fill="#999999"/>
<path d="M35.6551 38.3463C35.6012 38.3463 35.5667 38.3096 35.5473 38.2385C35.5305 38.1537 35.5226 38.0673 35.5235 37.9808C35.5225 37.8929 35.5304 37.8051 35.5473 37.7189C35.5623 37.6455 35.5979 37.611 35.6551 37.611H35.9257C36.1413 37.611 36.3102 37.6082 36.4324 37.6024C36.527 37.6039 36.6203 37.5805 36.703 37.5345C36.7533 37.5036 36.8137 37.4626 36.8841 37.4116C36.9545 37.3606 37.039 37.2944 37.1375 37.2132L36.9046 37.1453C36.8255 37.123 36.7537 37.1033 36.689 37.086C36.621 37.0688 36.5618 37.0547 36.51 37.0429C36.4746 37.034 36.4386 37.0283 36.4022 37.0256C36.3592 37.0252 36.3163 37.031 36.275 37.0429V37.334L35.9753 37.5032L35.9117 37.4612C35.903 37.3656 35.898 37.2908 35.8966 37.2369C35.8951 37.183 35.8951 37.1237 35.8966 37.059C35.8966 36.975 35.8966 36.9053 35.8966 36.8499C35.8984 36.8062 35.9027 36.7627 35.9095 36.7195C35.9132 36.6951 35.9197 36.6712 35.9289 36.6483C35.9334 36.6365 35.94 36.6255 35.9483 36.616L35.9968 36.5761C36.029 36.5511 36.0628 36.5284 36.0982 36.5082C36.1436 36.482 36.1917 36.4607 36.2415 36.4445C36.2979 36.4258 36.3569 36.4164 36.4162 36.4165C36.4988 36.4197 36.5808 36.4316 36.6609 36.4521C36.7652 36.4758 36.887 36.5074 37.0264 36.547C37.1658 36.5865 37.32 36.6343 37.4889 36.6903L38.028 36.8671L38.0452 36.9512L37.7919 37.3943C37.7326 37.3997 37.6841 37.4062 37.6442 37.4137C37.5994 37.4229 37.5569 37.4409 37.5191 37.4666C37.4641 37.5039 37.4131 37.5469 37.3671 37.5949C37.3089 37.6524 37.232 37.7332 37.1364 37.8374C37.0546 37.931 36.9648 38.0172 36.8679 38.0951C36.7896 38.1571 36.7037 38.2088 36.6124 38.2493C36.5238 38.2876 36.4301 38.313 36.3343 38.3247C36.222 38.3385 36.1089 38.345 35.9957 38.3441L35.6551 38.3463Z" fill="#999999"/>
<path d="M40.969 38.3459C40.969 38.3631 40.969 38.3793 40.9755 38.3965C40.982 38.4138 40.9755 38.4321 40.9755 38.4515C40.9761 38.5434 40.9656 38.635 40.9442 38.7243C40.9333 38.7824 40.914 38.8387 40.8871 38.8914C40.8542 38.9325 40.8158 38.9688 40.7728 38.9992C40.6961 39.0578 40.6133 39.108 40.5259 39.1491C40.4087 39.2053 40.2863 39.2501 40.1605 39.2828C40.0059 39.3226 39.8468 39.3418 39.6872 39.3399C39.5272 39.3453 39.3675 39.3215 39.216 39.2698C39.1098 39.2328 39.0145 39.1698 38.939 39.0865C38.8748 39.0114 38.8307 38.9213 38.8107 38.8246C38.789 38.7232 38.7782 38.6198 38.7783 38.5162C38.7783 38.4623 38.7783 38.3836 38.7891 38.2801C38.7999 38.1766 38.8042 38.071 38.8128 37.9632C38.8243 37.8395 38.8369 37.7073 38.8506 37.5664L39.2645 37.588C39.2588 37.7173 39.2531 37.8399 39.2473 37.9556C39.2416 38.0541 39.2365 38.1547 39.2322 38.2575C39.2279 38.3603 39.2243 38.4426 39.2214 38.5044C39.2798 38.5424 39.3449 38.5687 39.4133 38.582C39.5035 38.5968 39.5948 38.6033 39.6861 38.6014C39.7623 38.6014 39.841 38.5978 39.9222 38.5906C40.0029 38.5838 40.0831 38.5726 40.1626 38.5572C40.2417 38.5414 40.3171 38.5231 40.389 38.5022C40.4533 38.4839 40.516 38.4605 40.5766 38.4321C40.5736 38.4204 40.5714 38.4085 40.5701 38.3965C40.5694 38.3873 40.5673 38.3782 40.5637 38.3696C40.5203 38.3499 40.4741 38.3372 40.4267 38.3319C40.3696 38.3232 40.3038 38.3168 40.2305 38.3125L39.9933 38.3017C39.9092 38.3017 39.823 38.2941 39.7357 38.2887L39.7141 38.2338C39.7422 38.1324 39.7702 38.0354 39.7982 37.9427C39.8143 37.8775 39.8397 37.8151 39.8737 37.7572C39.8894 37.7333 39.9078 37.7112 39.9287 37.6915C39.9558 37.6694 39.9874 37.6535 40.0214 37.6451C40.0781 37.6302 40.1363 37.6211 40.195 37.6182C40.2668 37.6124 40.3638 37.6095 40.486 37.6095H41.0768V38.3491L40.969 38.3459Z" fill="#999999"/>
<path d="M41.8324 38.2813C41.76 38.2403 41.7006 38.1798 41.661 38.1066C41.6311 38.1539 41.5948 38.1967 41.5531 38.2339C41.5327 38.2522 41.5098 38.2678 41.4852 38.2802C41.407 38.3119 41.3246 38.3319 41.2405 38.3395C41.1643 38.3453 41.1108 38.3481 41.0799 38.3481C41.026 38.3481 40.9915 38.3115 40.972 38.2403C40.9553 38.1555 40.9474 38.0691 40.9483 37.9827C40.9472 37.8947 40.9552 37.807 40.972 37.7207C40.9871 37.6474 41.0227 37.6129 41.0799 37.6129H41.1456C41.1726 37.6129 41.2017 37.6129 41.234 37.6129C41.2664 37.6129 41.2987 37.6053 41.3311 37.5999C41.3621 37.5946 41.3924 37.5859 41.4216 37.5741L41.3839 36.5391C41.3839 36.4431 41.3763 36.3623 41.3688 36.2944C41.3623 36.232 41.3522 36.1701 41.3386 36.1089C41.3257 36.0529 41.3102 35.9972 41.2923 35.9418C41.2743 35.8865 41.2524 35.8254 41.2265 35.7586L41.6696 35.3359C41.7125 35.4203 41.7507 35.5071 41.7839 35.5958C41.8115 35.6707 41.8328 35.7479 41.8475 35.8265C41.862 35.9045 41.8714 35.9833 41.8755 36.0626C41.8798 36.1445 41.882 36.2361 41.882 36.3375V37.5115C41.8951 37.5336 41.9129 37.5526 41.9341 37.5671C41.9554 37.5817 41.9795 37.5914 42.0049 37.5956C42.0546 37.6082 42.1056 37.6151 42.1569 37.6161V38.3557C42.0452 38.3616 41.9339 38.3389 41.8335 38.2899" fill="#999999"/>
<path d="M43.6078 38.346C43.5445 38.344 43.4816 38.335 43.4202 38.3191C43.3426 38.3011 43.2611 38.277 43.1755 38.2469C43.0901 38.2175 43.0062 38.1837 42.9243 38.1455C42.8521 38.1128 42.7828 38.0739 42.7173 38.0291C42.6468 38.1229 42.5603 38.2035 42.4618 38.2673C42.3703 38.3207 42.2658 38.3476 42.16 38.345C42.1061 38.345 42.0715 38.3083 42.0521 38.2372C42.0354 38.1523 42.0274 38.066 42.0284 37.9795C42.0273 37.8916 42.0353 37.8038 42.0521 37.7175C42.0672 37.6442 42.1017 37.6097 42.16 37.6097C42.2498 37.6123 42.3395 37.6018 42.4262 37.5784C42.4931 37.5567 42.554 37.5198 42.6041 37.4706C42.6601 37.4159 42.709 37.3543 42.7497 37.2874L42.9211 37.0146C42.9674 36.9353 43.0243 36.8628 43.0903 36.799C43.1471 36.7457 43.2119 36.7017 43.2823 36.6685C43.3566 36.6345 43.4354 36.6109 43.5162 36.5985C43.6155 36.5834 43.7156 36.5736 43.8159 36.5693L43.9086 36.6577C43.9647 36.8575 44.0075 37.0419 44.0369 37.2108C44.0632 37.3473 44.078 37.4858 44.0811 37.6248C44.0816 37.7177 44.0659 37.81 44.0348 37.8975C44.0062 37.9786 43.9671 38.0554 43.9183 38.1261C43.8771 38.1872 43.8256 38.2408 43.7663 38.2846C43.7211 38.3207 43.6656 38.3414 43.6078 38.3439M43.5399 37.2033C43.4752 37.2086 43.4213 37.2151 43.3793 37.2227C43.3388 37.229 43.2999 37.2433 43.265 37.2647C43.2277 37.2891 43.1949 37.3198 43.168 37.3553C43.1371 37.3948 43.099 37.4498 43.0537 37.5202C43.1401 37.5645 43.2318 37.5978 43.3265 37.6194C43.4283 37.645 43.5322 37.6612 43.6369 37.6679C43.631 37.5818 43.6177 37.4963 43.5971 37.4124C43.5762 37.3269 43.5572 37.2572 43.5399 37.2033Z" fill="#999999"/>
<path d="M49.3189 38.3459C49.2545 38.3466 49.1902 38.3408 49.127 38.3287C49.0754 38.3187 49.0261 38.2993 48.9814 38.2716C48.9365 38.2428 48.8971 38.2063 48.865 38.1638C48.8259 38.1107 48.7927 38.0536 48.7658 37.9934C48.7346 38.0527 48.7087 38.1012 48.6882 38.1346C48.6709 38.1639 48.6519 38.1919 48.6311 38.2187C48.6174 38.2366 48.601 38.2523 48.5826 38.2651L48.534 38.292C48.495 38.3134 48.4528 38.3283 48.409 38.3362C48.3648 38.3437 48.3201 38.3473 48.2753 38.347C48.1752 38.352 48.0759 38.3264 47.9907 38.2737C47.8998 38.1991 47.8293 38.1027 47.7858 37.9934C47.7546 38.0527 47.7287 38.1012 47.7082 38.1346C47.691 38.1639 47.672 38.192 47.6511 38.2187C47.6374 38.2366 47.6211 38.2523 47.6026 38.2651L47.5541 38.292C47.5124 38.3143 47.4671 38.3293 47.4204 38.3362C47.3708 38.3436 47.3207 38.3472 47.2705 38.347C47.1964 38.3496 47.1226 38.3352 47.0549 38.305C47.051 38.4292 47.0369 38.5529 47.0128 38.6748C46.9999 38.7509 46.9786 38.8254 46.9492 38.8969C46.9199 38.9388 46.8834 38.9753 46.8414 39.0047C46.7678 39.0627 46.6879 39.1122 46.6032 39.1524C46.4854 39.2092 46.3623 39.254 46.2355 39.2861C46.0755 39.3261 45.911 39.3453 45.7461 39.3432C45.5861 39.3485 45.4265 39.3248 45.2749 39.2731C45.1692 39.2359 45.0743 39.1729 44.9989 39.0898C44.9344 39.0145 44.8892 38.9246 44.8674 38.8279C44.8447 38.7267 44.8335 38.6232 44.834 38.5195C44.834 38.4663 44.8376 38.3876 44.8448 38.2834C44.852 38.1792 44.8599 38.0736 44.8685 37.9665C44.88 37.8428 44.8926 37.7106 44.9062 37.5697L45.3202 37.5913C45.3145 37.679 45.3094 37.7699 45.3051 37.864C45.3008 37.9582 45.2965 38.0477 45.2922 38.1325C45.2879 38.2173 45.2843 38.2928 45.2814 38.3589C45.2785 38.425 45.2785 38.475 45.2814 38.5087C45.3475 38.5486 45.4208 38.575 45.497 38.5864C45.5801 38.5995 45.6641 38.606 45.7482 38.6058C45.8201 38.6058 45.897 38.6022 45.9789 38.595C46.0609 38.5878 46.1389 38.5774 46.2129 38.5637C46.2891 38.5493 46.361 38.5325 46.4285 38.5131C46.4913 38.4954 46.5526 38.4727 46.6118 38.4451C46.5945 38.3352 46.5755 38.2274 46.5547 38.1217C46.5338 38.0161 46.5112 37.9133 46.4867 37.8134C46.463 37.7163 46.4382 37.6258 46.4123 37.5406C46.3865 37.4554 46.3627 37.3821 46.3401 37.3164L46.822 37.0167L46.8975 37.0339C46.9313 37.1575 46.9593 37.2653 46.9816 37.3573C46.9966 37.4258 47.0194 37.4924 47.0495 37.5557C47.0762 37.5789 47.1079 37.5955 47.1422 37.6042C47.1809 37.6145 47.2208 37.6196 47.2608 37.6193C47.3032 37.6193 47.3474 37.6172 47.3934 37.6129C47.4385 37.609 47.483 37.5999 47.526 37.5859L47.6532 37.007H48.0543V37.3444C48.0527 37.4138 48.0735 37.4818 48.1136 37.5385C48.1353 37.5654 48.1632 37.5867 48.1949 37.6006C48.2266 37.6145 48.2612 37.6205 48.2958 37.6182H48.3669C48.4035 37.6161 48.4397 37.6096 48.4747 37.5988L48.6138 36.9024H49.0364V37.3455C49.0346 37.4156 49.0571 37.4841 49.1 37.5395C49.1271 37.569 49.1607 37.5915 49.1982 37.6054C49.2357 37.6193 49.276 37.6241 49.3157 37.6193L49.3189 38.3459ZM47.4117 36.0485L47.843 36.3224L48.0327 36.0485L48.4974 36.3396L48.2268 36.787L47.7955 36.5164L47.6058 36.787L47.1411 36.4959L47.4117 36.0485ZM47.6274 35.3726L48.092 35.6636L47.8214 36.1111L47.332 35.7984L47.6274 35.3726Z" fill="#999999"/>
<path d="M49.2472 38.6838L49.6784 38.9544L49.8681 38.6838L50.3328 38.9748L50.0622 39.4223L49.631 39.1473L49.4412 39.4223L48.9766 39.1312L49.2472 38.6838ZM49.3194 38.3463C49.2655 38.3463 49.231 38.3097 49.2116 38.2385C49.1948 38.1537 49.1869 38.0673 49.1879 37.9808C49.1868 37.8929 49.1947 37.8051 49.2116 37.7189C49.2267 37.6455 49.2623 37.611 49.3194 37.611H49.5814L49.7841 37.6046C49.8433 37.6046 49.8919 37.597 49.9425 37.5895C49.9862 37.5829 50.0294 37.5736 50.0719 37.5615C50.0579 37.5022 50.0406 37.4418 50.0191 37.3803C49.9975 37.3189 49.9749 37.2563 49.9512 37.1949C49.9274 37.1334 49.9016 37.0742 49.8757 37.0203L49.8056 36.8747L50.2746 36.5513L50.3544 36.5858C50.4069 36.7173 50.4487 36.8529 50.4794 36.9911C50.5092 37.1286 50.524 37.2688 50.5236 37.4094C50.5238 37.5027 50.5133 37.5956 50.4924 37.6865C50.4729 37.7736 50.4447 37.8584 50.4083 37.9399C50.3763 38.012 50.3357 38.0801 50.2875 38.1426C50.2512 38.1926 50.2054 38.2351 50.1528 38.2676C49.8832 38.3486 49.601 38.3785 49.3205 38.356" fill="#999999"/>
<path d="M51.283 38.3459C51.2185 38.3462 51.1541 38.3389 51.0911 38.3244C51.0329 38.3118 50.9781 38.2868 50.9305 38.2511C50.8845 38.2144 50.8476 38.1675 50.8227 38.1141C50.7918 38.0466 50.7774 37.9727 50.7806 37.8985C50.7835 37.8147 50.7944 37.7313 50.813 37.6495C50.8338 37.5453 50.8597 37.4375 50.8906 37.3261C50.9215 37.2147 50.9539 37.104 50.9876 36.994C51.0214 36.8855 51.0523 36.7946 51.0804 36.7212L51.1731 36.6533C51.3213 36.6551 51.4678 36.6859 51.6043 36.7439C51.719 36.7948 51.8223 36.8681 51.9083 36.9595C51.9903 37.0475 52.0566 37.1489 52.1045 37.2592C52.1532 37.3702 52.1894 37.4863 52.2124 37.6053H52.4873V38.3449H52.2339C52.2115 38.4983 52.1645 38.6472 52.0948 38.7858C52.0392 38.8949 51.9696 38.9964 51.8878 39.0877C51.8279 39.1552 51.7581 39.2134 51.6808 39.2602C51.6403 39.2877 51.5944 39.3065 51.5461 39.3152H51.4825C51.4545 39.3152 51.4113 39.3054 51.352 39.2936L51.1138 39.2472L50.7354 39.1707V38.9551C50.96 38.875 51.1765 38.7739 51.3822 38.6532C51.5539 38.5556 51.7128 38.4372 51.8555 38.3007C51.856 38.2935 51.856 38.2863 51.8555 38.2791C51.8548 38.2708 51.8548 38.2625 51.8555 38.2543C51.7742 38.2817 51.6909 38.3029 51.6065 38.3179C51.5018 38.336 51.3957 38.3447 51.2895 38.3438M51.4372 37.6678C51.4894 37.6677 51.5416 37.6648 51.5935 37.6592L51.7455 37.6419C51.7086 37.5419 51.6484 37.4521 51.5698 37.38C51.4833 37.306 51.3731 37.2655 51.2593 37.2657L51.2291 37.3465C51.2183 37.3778 51.2065 37.4101 51.1957 37.4457C51.1849 37.4813 51.1741 37.5147 51.1666 37.5471C51.159 37.574 51.1533 37.6013 51.1493 37.629C51.2408 37.6634 51.3389 37.6763 51.4361 37.6667" fill="#999999"/>
<path d="M52.4103 38.6837L52.8415 38.9544L53.0312 38.6837L53.4959 38.9748L53.2253 39.4222L52.794 39.1473L52.6043 39.4222L52.1396 39.1312L52.4103 38.6837ZM52.4825 38.3463C52.4293 38.3463 52.3934 38.3104 52.3747 38.2385C52.3579 38.1537 52.35 38.0673 52.351 37.9808C52.3498 37.8929 52.3578 37.8051 52.3747 37.7189C52.3908 37.6455 52.4254 37.611 52.4825 37.611H52.7445C52.8207 37.611 52.8882 37.6089 52.9472 37.6046C53.0002 37.6023 53.0531 37.5972 53.1056 37.5895C53.1493 37.5829 53.1925 37.5735 53.235 37.5614C53.221 37.5021 53.2026 37.4418 53.1822 37.3803C53.1617 37.3189 53.138 37.2563 53.1153 37.1949C53.0927 37.1334 53.0657 37.0741 53.0388 37.0202C53.0118 36.9663 52.9892 36.9124 52.9698 36.8747L53.4388 36.5513L53.5185 36.5847C53.5706 36.7163 53.6121 36.8518 53.6425 36.9901C53.6723 37.1275 53.6871 37.2677 53.6867 37.4084C53.6868 37.5012 53.6763 37.5938 53.6555 37.6843C53.636 37.7714 53.6078 37.8563 53.5714 37.9377C53.5393 38.0098 53.4987 38.0778 53.4506 38.1404C53.4143 38.1904 53.3685 38.2329 53.3159 38.2654C53.0463 38.3463 52.7641 38.3762 52.4836 38.3538M53.0075 40.1068L52.5429 39.8158L52.8135 39.3683L53.3029 39.681L53.0075 40.1068Z" fill="#999999"/>
<defs>
<linearGradient id="paint0_linear_4624_26968" x1="8.90257" y1="15.6133" x2="8.90257" y2="28.3456" gradientUnits="userSpaceOnUse">
<stop stop-color="#080A4F"/>
<stop offset="1" stop-color="#02041C"/>
</linearGradient>
<linearGradient id="paint1_linear_4624_26968" x1="39.4389" y1="10.8989" x2="39.4389" y2="32.8943" gradientUnits="userSpaceOnUse">
<stop stop-color="#080A4F"/>
<stop offset="1" stop-color="#02041C"/>
</linearGradient>
<linearGradient id="paint2_linear_4624_26968" x1="36.8831" y1="9.19531" x2="36.8831" y2="16.9673" gradientUnits="userSpaceOnUse">
<stop stop-color="#080A4F"/>
<stop offset="1" stop-color="#02041C"/>
</linearGradient>
<linearGradient id="paint3_linear_4624_26968" x1="35.9443" y1="9.19531" x2="35.9443" y2="13.3083" gradientUnits="userSpaceOnUse">
<stop stop-color="#080A4F"/>
<stop offset="1" stop-color="#02041C"/>
</linearGradient>
<linearGradient id="paint4_linear_4624_26968" x1="39.0885" y1="18.1826" x2="39.0885" y2="26.7212" gradientUnits="userSpaceOnUse">
<stop stop-color="#080A4F"/>
<stop offset="1" stop-color="#02041C"/>
</linearGradient>
<linearGradient id="paint5_linear_4624_26968" x1="48.7257" y1="17.7808" x2="48.7257" y2="27.1322" gradientUnits="userSpaceOnUse">
<stop stop-color="#080A4F"/>
<stop offset="1" stop-color="#02041C"/>
</linearGradient>
<linearGradient id="paint6_linear_4624_26968" x1="52.0514" y1="12.1152" x2="52.0514" y2="16.4837" gradientUnits="userSpaceOnUse">
<stop stop-color="#080A4F"/>
<stop offset="1" stop-color="#02041C"/>
</linearGradient>
<linearGradient id="paint7_linear_4624_26968" x1="45.0051" y1="13.8154" x2="45.0051" y2="18.1839" gradientUnits="userSpaceOnUse">
<stop stop-color="#080A4F"/>
<stop offset="1" stop-color="#02041C"/>
</linearGradient>
<linearGradient id="paint8_linear_4624_26968" x1="22.7477" y1="28.3643" x2="22.7477" y2="32.7327" gradientUnits="userSpaceOnUse">
<stop stop-color="#080A4F"/>
<stop offset="1" stop-color="#02041C"/>
</linearGradient>
<linearGradient id="paint9_linear_4624_26968" x1="11.8716" y1="28.3105" x2="11.8716" y2="32.7329" gradientUnits="userSpaceOnUse">
<stop stop-color="#080A4F"/>
<stop offset="1" stop-color="#02041C"/>
</linearGradient>
<linearGradient id="paint10_linear_4624_26968" x1="10.8123" y1="13.1919" x2="10.8123" y2="17.6358" gradientUnits="userSpaceOnUse">
<stop stop-color="#080A4F"/>
<stop offset="1" stop-color="#02041C"/>
</linearGradient>
<linearGradient id="paint11_linear_4624_26968" x1="28.1086" y1="12.6982" x2="28.1086" y2="17.4365" gradientUnits="userSpaceOnUse">
<stop stop-color="#080A4F"/>
<stop offset="1" stop-color="#02041C"/>
</linearGradient>
<linearGradient id="paint12_linear_4624_26968" x1="5.03714" y1="9.70215" x2="5.03714" y2="32.6721" gradientUnits="userSpaceOnUse">
<stop stop-color="#080A4F"/>
<stop offset="1" stop-color="#02041C"/>
</linearGradient>
<linearGradient id="paint13_linear_4624_26968" x1="12.694" y1="20.7246" x2="12.694" y2="27.9198" gradientUnits="userSpaceOnUse">
<stop stop-color="#080A4F"/>
<stop offset="1" stop-color="#02041C"/>
</linearGradient>
<linearGradient id="paint14_linear_4624_26968" x1="20.5085" y1="8.61328" x2="20.5085" y2="30.5105" gradientUnits="userSpaceOnUse">
<stop stop-color="#080A4F"/>
<stop offset="1" stop-color="#02041C"/>
</linearGradient>
<linearGradient id="paint15_linear_4624_26968" x1="24.0835" y1="14.4976" x2="24.0835" y2="26.9464" gradientUnits="userSpaceOnUse">
<stop stop-color="#080A4F"/>
<stop offset="1" stop-color="#02041C"/>
</linearGradient>
<linearGradient id="paint16_linear_4624_26968" x1="76.1596" y1="0.426768" x2="76.1097" y2="25.1486" gradientUnits="userSpaceOnUse">
<stop stop-color="#82C341"/>
<stop offset="1" stop-color="#37BEC1"/>
</linearGradient>
<linearGradient id="paint17_linear_4624_26968" x1="78.325" y1="2.44947" x2="81.3806" y2="43.7088" gradientUnits="userSpaceOnUse">
<stop stop-color="#080A4F"/>
<stop offset="1" stop-color="#02041C"/>
</linearGradient>
<linearGradient id="paint18_linear_4624_26968" x1="62.639" y1="1.65764" x2="66.7011" y2="45.3074" gradientUnits="userSpaceOnUse">
<stop stop-color="#080A4F"/>
<stop offset="1" stop-color="#02041C"/>
</linearGradient>
<linearGradient id="paint19_linear_4624_26968" x1="75.9377" y1="34.5345" x2="78.2179" y2="31.456" gradientUnits="userSpaceOnUse">
<stop stop-color="#8C5E2C"/>
<stop offset="1" stop-color="#E0AD70"/>
</linearGradient>
<linearGradient id="paint20_linear_4624_26968" x1="69.015" y1="40.743" x2="76.2059" y2="30.9628" gradientUnits="userSpaceOnUse">
<stop stop-color="#8C5E2C"/>
<stop offset="1" stop-color="#E0AD70"/>
</linearGradient>
<linearGradient id="paint21_linear_4624_26968" x1="77.0108" y1="49.3627" x2="97.9612" y2="20.8543" gradientUnits="userSpaceOnUse">
<stop stop-color="#8C5E2C"/>
<stop offset="1" stop-color="#E0AD70"/>
</linearGradient>
<linearGradient id="paint22_linear_4624_26968" x1="84.3768" y1="35.8796" x2="95.2218" y2="21.1654" gradientUnits="userSpaceOnUse">
<stop stop-color="#8C5E2C"/>
<stop offset="1" stop-color="#E0AD70"/>
</linearGradient>
</defs>
</svg>
